SplineFontDB: 3.0
FontName: OldHungarian
FullName: Old Hungarian
FamilyName: OldHungarian
Weight: Regular
Copyright: Licenced under the CC-BY-SA 3.0\n\nUsed glyphs based on\n\n- https://upload.wikimedia.org/wikipedia/commons/c/c7/Szekely_Hungarian_Rovas_alphabet_Szekely_magyar_rovas_ABC.svg\n- https://upload.wikimedia.org/wikipedia/commons/e/ee/1-1000_Rov%C3%A1ssz%C3%A1mok.svg\n\nReverse comma, and reverse double 9 quote is based on the Symbola font, which is under public domain
UComments: "Created with FontForge (http://fontforge.org)+AAoACgAA-Used glyphs based on+AAoACgAA-- https://upload.wikimedia.org/wikipedia/commons/c/c7/Szekely_Hungarian_Rovas_alphabet_Szekely_magyar_rovas_ABC.svg+AAoA-- https://upload.wikimedia.org/wikipedia/commons/e/ee/1-1000_Rov%C3%A1ssz%C3%A1mok.svg+AAoACgAA-Reverse comma, and reverse double 9 quote is based on the Symbola font, which is under public domain"
Version: 001.000
ItalicAngle: 0
UnderlinePosition: -102
UnderlineWidth: 51
Ascent: 819
Descent: 205
InvalidEm: 0
LayerCount: 2
Layer: 0 0 "Back" 1
Layer: 1 0 "Fore" 0
XUID: [1021 624 1172978761 3233401]
FSType: 0
OS2Version: 0
OS2_WeightWidthSlopeOnly: 0
OS2_UseTypoMetrics: 1
CreationTime: 1435264743
ModificationTime: 1471528499
PfmFamily: 33
TTFWeight: 400
TTFWidth: 5
LineGap: 94
VLineGap: 94
OS2TypoAscent: 0
OS2TypoAOffset: 1
OS2TypoDescent: 0
OS2TypoDOffset: 1
OS2TypoLinegap: 92
OS2WinAscent: 0
OS2WinAOffset: 1
OS2WinDescent: 0
OS2WinDOffset: 1
HheadAscent: 0
HheadAOffset: 1
HheadDescent: 0
HheadDOffset: 1
OS2CapHeight: 0
OS2XHeight: 0
OS2Vendor: 'PfEd'
Lookup: 4 1 1 "OLD_HUNGARIAN_LIGATURES" { "OLD_HUNGARIAN_LIGATURES"  } ['liga' ('DFLT' <'dflt' > ) ]
MarkAttachClasses: 1
DEI: 91125
LangName: 1033
Encoding: Custom
UnicodeInterp: none
NameList: AGL For New Fonts
DisplaySize: -96
AntiAlias: 1
FitToEm: 0
WidthSeparation: 154
WinInfo: 104 8 3
BeginPrivate: 0
EndPrivate

StartChar: u10C8F
Encoding: 15 68751 0
Width: 679
VWidth: 0
Flags: W
HStem: 409 17<63 64 619 620>
LayerCount: 2
Back
Fore
SplineSet
592 70 m 1
 617 63 626 45 615 31 c 0
 604 17 577 9 552 16 c 0
 472 39 401 71 340 111 c 1
 279 71 209 39 129 16 c 0
 104 9 77 17 66 31 c 0
 55 45 64 63 89 70 c 0
 160 90 223 119 278 156 c 1
 272 161 265 165 259 170 c 0
 181 237 118 318 64 408 c 1
 64 409 l 1
 63 409 l 1
 63 410 l 1
 63 411 l 2
 61 412 l 1
 61 413 l 1
 61 414 l 1
 61 415 l 2
 61 416 l 0
 60 416 l 2
 60 417 l 2
 60 418 l 2
 60 419 l 1
 61 420 l 0
 61 421 l 2
 61 422 l 2
 61 423 l 1
 61 424 l 1
 63 424 l 1
 63 425 l 1
 63 426 l 1
 64 426 l 1
 64 427 l 1
 64 428 l 1
 118 518 181 598 259 665 c 0
 265 670 272 675 278 680 c 1
 223 717 160 746 89 766 c 0
 64 773 55 791 66 805 c 0
 77 819 104 826 129 819 c 0
 209 796 280 765 341 725 c 1
 402 765 472 796 552 819 c 0
 577 826 604 819 615 805 c 0
 626 791 617 773 592 766 c 0
 521 746 459 717 404 680 c 1
 410 675 416 670 422 665 c 0
 500 598 564 518 618 428 c 1
 618 427 l 1
 619 426 l 1
 619 425 l 1
 619 424 l 1
 620 424 l 1
 620 423 l 1
 620 422 l 2
 620 421 l 1
 620 420 l 2
 621 420 l 0
 621 419 l 2
 621 418 l 2
 621 417 l 2
 621 416 l 1
 620 415 l 2
 620 414 l 2
 620 413 l 1
 620 412 l 1
 620 411 l 1
 619 411 l 1
 619 410 l 2
 619 409 l 2
 618 409 l 1
 618 408 l 1
 564 318 500 237 422 170 c 0
 416 165 410 161 404 156 c 1
 459 119 521 90 592 70 c 1
60 420 m 0
 60 421 l 1024
161 418 m 1
 211 337 268 264 338 205 c 2
 340 203 l 1
 343 205 l 2
 413 264 470 337 520 418 c 1
 470 499 413 572 343 631 c 0
 342 632 341 632 340 633 c 2
 338 631 l 2
 268 572 211 499 161 418 c 1
621 421 m 0
 621 420 l 1024
EndSplineSet
EndChar

StartChar: u10CC4
Encoding: 62 68804 1
Width: 524
VWidth: 0
Flags: W
VStem: 226.753 73<25.0145 493>
LayerCount: 2
Back
Fore
SplineSet
471.752929688 340 m 2
 479.752929688 326 473.752929688 315 450.752929688 311 c 0
 427.752929688 306 412.752929688 312 403.752929688 324 c 2
 299.752929688 493 l 1
 299.752929688 332 l 1
 299.752929688 44 l 2
 299.752929688 30 288.752929688 24 264.752929688 24 c 0
 238.752929688 24 226.752929688 30 226.752929688 44 c 2
 226.752929688 332 l 1
 226.752929688 493 l 1
 122.752929688 324 l 2
 115.752929688 312 100.752929688 306 77.7529296875 311 c 0
 54.7529296875 315 48.7529296875 326 55.7529296875 340 c 2
 229.752929688 618 l 1
 235.752929688 627 248.752929688 633 264.752929688 633 c 0
 280.752929688 633 292.752929688 627 296.752929688 618 c 2
 471.752929688 340 l 2
EndSplineSet
EndChar

StartChar: u10CC2
Encoding: 60 68802 2
Width: 536
VWidth: 0
Flags: W
LayerCount: 2
Back
Fore
SplineSet
409.24609375 620 m 2
 418.24609375 631 433.24609375 635 457.24609375 632 c 0
 481.24609375 629 485.24609375 619 475.24609375 604 c 2
 306.24609375 329 l 1
 475.24609375 54 l 2
 486.24609375 40 481.24609375 31 457.24609375 26 c 0
 433.24609375 21 417.24609375 26 409.24609375 39 c 2
 268.24609375 267 l 1
 128.24609375 39 l 2
 119.24609375 26 103.24609375 21 78.24609375 24 c 0
 53.24609375 27 49.24609375 38 62.24609375 54 c 2
 228.24609375 329 l 1
 62.24609375 604 l 2
 50.24609375 620 55.24609375 631 80.24609375 634 c 0
 105.24609375 637 120.24609375 632 128.24609375 620 c 2
 268.24609375 391 l 1
 409.24609375 620 l 2
EndSplineSet
EndChar

StartChar: u10CE2
Encoding: 92 68834 3
Width: 577
VWidth: 0
Flags: W
VStem: 76 73<25.0145 226 287 634.707> 429 73<27.1536 373 433 634.707>
LayerCount: 2
Back
Fore
SplineSet
429 373 m 1
 149 226 l 1
 149 44 l 2
 149 30 138 24 114 24 c 0
 88 24 76 30 76 44 c 2
 76 614 l 2
 76 628 88 636 114 636 c 0
 138 636 149 628 149 614 c 2
 149 287 l 1
 429 433 l 1
 429 614 l 2
 429 628 441 636 467 636 c 0
 491 636 502 628 502 614 c 2
 502 47 l 2
 502 33 491 26 467 26 c 0
 441 26 429 33 429 47 c 2
 429 373 l 1
EndSplineSet
EndChar

StartChar: u10CD0
Encoding: 74 68816 4
Width: 349
VWidth: 0
Flags: W
VStem: 142.842 73<25.0145 421 518 632.707>
LayerCount: 2
Back
Fore
SplineSet
242.841796875 531 m 0
 261.841796875 539 279.841796875 538 293.841796875 527 c 0
 307.841796875 516 307.841796875 507 291.841796875 500 c 2
 215.841796875 459 l 1
 215.841796875 44 l 2
 215.841796875 30 204.841796875 24 180.841796875 24 c 0
 154.841796875 24 142.841796875 30 142.841796875 44 c 2
 142.841796875 421 l 1
 113.841796875 408 l 2
 93.841796875 396 74.841796875 395 59.841796875 406 c 0
 44.841796875 417 46.841796875 428 66.841796875 439 c 2
 142.841796875 480 l 1
 142.841796875 612 l 2
 142.841796875 626 154.841796875 634 180.841796875 634 c 0
 204.841796875 634 215.841796875 626 215.841796875 612 c 2
 215.841796875 518 l 1
 242.841796875 531 l 0
EndSplineSet
EndChar

StartChar: u10CC0
Encoding: 58 68800 5
Width: 551
VWidth: 0
Flags: W
HStem: 238 46<154.105 404.105>
VStem: 404.105 72<25.0145 238 284 532>
LayerCount: 2
Back
Fore
SplineSet
404.10546875 284 m 1
 404.10546875 532 l 1
 154.10546875 284 l 1
 404.10546875 284 l 1
476.10546875 44 m 0
 476.10546875 30 464.10546875 24 438.10546875 24 c 0
 414.10546875 24 404.10546875 30 404.10546875 44 c 2
 404.10546875 238 l 1
 92.10546875 238 l 2
 83.10546875 238 74.10546875 239 67.10546875 241 c 0
 48.10546875 248 46.10546875 259 60.10546875 273 c 2
 407.10546875 618 l 2
 416.10546875 627 426.10546875 633 438.10546875 633 c 0
 464.10546875 633 476.10546875 625 476.10546875 611 c 2
 476.10546875 44 l 0
EndSplineSet
EndChar

StartChar: u10CA8
Encoding: 40 68776 6
Width: 671
VWidth: 0
Flags: W
LayerCount: 2
Back
Fore
SplineSet
614.927734375 53 m 2
 621.927734375 34 611.927734375 21 581.927734375 15 c 0
 551.927734375 9 531.927734375 15 524.927734375 32 c 2
 454.927734375 146 l 1
 382.927734375 32 l 2
 368.927734375 15 345.927734375 9 315.927734375 15 c 0
 285.927734375 21 278.927734375 34 292.927734375 53 c 2
 403.927734375 228 l 1
 335.927734375 335 l 1
 149.927734375 32 l 2
 135.927734375 15 113.927734375 9 83.927734375 15 c 0
 53.927734375 21 46.927734375 34 60.927734375 53 c 2
 286.927734375 418 l 1
 60.927734375 783 l 2
 46.927734375 802 53.927734375 814 83.927734375 820 c 0
 113.927734375 826 135.927734375 820 149.927734375 804 c 2
 224.927734375 683 l 1
 296.927734375 804 l 2
 308.927734375 820 329.927734375 826 360.927734375 820 c 0
 391.927734375 814 400.927734375 802 386.927734375 783 c 2
 274.927734375 600 l 1
 335.927734375 501 l 1
 524.927734375 804 l 2
 531.927734375 820 552.927734375 826 583.927734375 820 c 0
 614.927734375 814 623.927734375 802 614.927734375 783 c 2
 389.927734375 418 l 1
 614.927734375 53 l 2
EndSplineSet
EndChar

StartChar: u10CD3
Encoding: 77 68819 7
Width: 529
VWidth: 0
Flags: W
LayerCount: 2
Back
Fore
SplineSet
266.25 549 m 1
 126.25 329 l 1
 266.25 108 l 1
 404.25 329 l 1
 266.25 549 l 1
56.25 337 m 2
 233.25 620 l 1
 240.25 628 252.25 633 267.25 633 c 0
 283.25 633 294.25 628 300.25 620 c 2
 477.25 337 l 1
 479.25 331 479.25 326 477.25 321 c 2
 300.25 40 l 1
 293.25 29 280.25 24 264.25 24 c 0
 248.25 24 237.25 29 233.25 40 c 2
 56.25 321 l 2
 53.25 328 53.25 333 56.25 337 c 2
EndSplineSet
EndChar

StartChar: u10C8B
Encoding: 11 68747 8
Width: 439
VWidth: 0
Flags: W
VStem: 288 96<323.209 512.483>
LayerCount: 2
Back
Fore
SplineSet
99 625 m 2
 72 625 51 637 51 653 c 0
 51 659 55 666 60 671 c 2
 198 808 l 2
 212 822 240 826 263 818 c 0
 286 810 294 791 280 777 c 2
 176 674 l 1
 227 661 272 635 307 600 c 0
 354 553 384 489 384 418 c 1
 384 347 354 283 307 236 c 0
 272 201 227 175 176 162 c 1
 280 58 l 2
 294 44 286 25 263 17 c 0
 240 9 212 14 198 28 c 2
 60 165 l 2
 55 170 51 175 51 181 c 0
 51 197 72 211 99 211 c 2
 100 211 100 211 101 211 c 0
 147 212 191 232 225 266 c 0
 264 305 288 359 288 418 c 1
 288 477 264 530 225 569 c 0
 191 603 147 624 101 625 c 0
 100 625 100 625 99 625 c 2
EndSplineSet
EndChar

StartChar: u10C96
Encoding: 22 68758 9
Width: 671
VWidth: 0
Flags: W
LayerCount: 2
Back
Fore
SplineSet
468.778320312 211 m 1
 409.778320312 28 l 2
 406.778320312 18 396.778320312 13 377.778320312 13 c 0
 358.778320312 13 351.778320312 21 356.778320312 35 c 2
 438.778320312 301 l 1
 403.778320312 423 l 1
 281.778320312 28 l 2
 278.778320312 18 268.778320312 13 250.778320312 13 c 0
 232.778320312 13 225.778320312 21 230.778320312 35 c 2
 374.778320312 512 l 1
 335.778320312 637 l 1
 151.778320312 46 l 2
 144.778320312 24 125.778320312 13 92.7783203125 13 c 0
 59.7783203125 13 46.7783203125 25 55.7783203125 52 c 2
 289.778320312 799 l 2
 294.778320312 814 309.778320312 822 335.778320312 822 c 0
 361.778320312 822 376.778320312 814 382.778320312 799 c 2
 615.778320312 52 l 2
 624.778320312 25 611.778320312 13 577.778320312 13 c 0
 543.778320312 13 524.778320312 24 518.778320312 46 c 2
 468.778320312 211 l 1
EndSplineSet
EndChar

StartChar: u10CAA
Encoding: 42 68778 10
Width: 715
VWidth: 0
Flags: W
VStem: 77 95<146 685> 542 96<146 685>
LayerCount: 2
Back
Fore
SplineSet
542 685 m 1
 388 535 l 1
 366 521 347 521 330 535 c 2
 172 685 l 1
 172 146 l 1
 330 298 l 2
 349 311 369 311 388 298 c 1
 542 146 l 1
 542 685 l 1
77 44 m 2
 77 791 l 2
 77 803 85 812 102 819 c 0
 128 825 150 822 166 809 c 2
 358 614 l 1
 548 805 l 2
 559 816 574 822 591 822 c 0
 623 822 638 812 638 794 c 2
 638 44 l 2
 638 34 629 25 615 18 c 0
 589 9 566 13 548 30 c 2
 358 215 l 1
 166 30 l 2
 155 19 142 13 127 13 c 0
 93 13 77 24 77 44 c 2
EndSplineSet
EndChar

StartChar: u10C84
Encoding: 4 68740 11
Width: 660
VWidth: 0
Flags: W
VStem: 283.329 96<16.4117 637>
LayerCount: 2
Back
Fore
SplineSet
606.329101562 434 m 2
 617.329101562 415 610.329101562 402 580.329101562 396 c 0
 550.329101562 390 529.329101562 396 517.329101562 412 c 2
 379.329101562 637 l 1
 379.329101562 423 l 1
 379.329101562 42 l 2
 379.329101562 24 364.329101562 13 333.329101562 13 c 0
 299.329101562 13 283.329101562 24 283.329101562 42 c 2
 283.329101562 423 l 1
 283.329101562 637 l 1
 144.329101562 412 l 2
 135.329101562 396 115.329101562 390 85.3291015625 396 c 0
 55.3291015625 402 46.3291015625 415 55.3291015625 434 c 2
 286.329101562 804 l 1
 294.329101562 816 309.329101562 822 332.329101562 822 c 0
 355.329101562 822 369.329101562 816 375.329101562 804 c 2
 606.329101562 434 l 2
EndSplineSet
EndChar

StartChar: u10CAF
Encoding: 47 68783 12
Width: 710
VWidth: 0
Flags: W
VStem: 77 93<106 282 360 536 614 819.131> 536 97<16.7369 224 303 471 551 729>
LayerCount: 2
Back
Fore
SplineSet
77 794 m 0
 77 812 93 822 124 822 c 0
 155 822 170 812 170 794 c 2
 170 614 l 1
 550 811 l 2
 561 818 573 822 583 822 c 0
 616 822 633 812 633 794 c 2
 633 42 l 2
 633 24 616 13 583 13 c 0
 551 13 536 24 536 42 c 2
 536 224 l 1
 160 20 l 2
 153 16 140 13 124 13 c 0
 93 13 77 24 77 42 c 2
 77 794 l 0
170 536 m 1
 170 360 l 1
 536 551 l 1
 536 564 l 1
 536 729 l 1
 170 536 l 1
170 282 m 1
 170 271 l 1
 170 106 l 1
 536 303 l 1
 536 471 l 1
 170 282 l 1
EndSplineSet
EndChar

StartChar: u10CA4
Encoding: 36 68772 13
Width: 669
VWidth: 0
Flags: W
LayerCount: 2
Back
Fore
SplineSet
150.495117188 43 m 2
 141.495117188 19 122.495117188 10 91.4951171875 14 c 0
 60.4951171875 18 48.4951171875 30 54.4951171875 47 c 2
 286.495117188 800 l 2
 292.495117188 814 308.495117188 822 334.495117188 822 c 0
 360.495117188 822 377.495117188 814 383.495117188 800 c 2
 614.495117188 47 l 2
 619.495117188 29 606.495117188 18 575.495117188 14 c 0
 544.495117188 10 525.495117188 19 518.495117188 43 c 2
 332.495117188 636 l 1
 150.495117188 43 l 2
EndSplineSet
EndChar

StartChar: u10CAD
Encoding: 45 68781 14
Width: 700
VWidth: 0
Flags: W
HStem: 388 56<165 533>
VStem: 69 96<444 818.841> 533 96<16.4117 388>
LayerCount: 2
Back
Fore
SplineSet
69 794 m 1
 69 812 85 822 118 822 c 0
 149 822 165 812 165 794 c 2
 165 716 l 1
 165 444 l 1
 333 444 l 1
 582 444 l 2
 613 444 629 435 629 416 c 1
 629 42 l 2
 629 24 613 13 582 13 c 0
 549 13 533 24 533 42 c 2
 533 120 l 1
 533 388 l 1
 368 388 l 1
 115 388 l 2
 84 388 69 398 69 416 c 2
 69 794 l 1
EndSplineSet
EndChar

StartChar: u10C89
Encoding: 9 68745 15
Width: 591
VWidth: 0
Flags: W
HStem: 14 57<57.9464 212.625> 761 60<58.6809 222.501>
VStem: 431 96<291.806 541.145>
LayerCount: 2
Back
Fore
SplineSet
438 807 m 0
 454 823 477 826 504 816 c 0
 531 806 536 791 520 775 c 2
 424 683 l 1
 493 604 527 515 527 416 c 1
 527 317 493 230 424 154 c 1
 520 60 l 2
 533 44 527 29 500 19 c 0
 472 9 452 13 438 29 c 2
 367 99 l 1
 291 42 203 14 104 14 c 1
 73 14 57 25 57 43 c 0
 57 62 73 71 104 71 c 1
 180 71 248 100 313 154 c 1
 210 255 l 2
 191 271 194 286 221 295 c 0
 248 304 270 302 292 289 c 1
 367 213 l 1
 410 274 431 342 431 416 c 1
 431 490 410 558 367 623 c 1
 303 558 l 2
 284 539 260 536 233 546 c 0
 205 556 202 571 221 590 c 2
 313 683 l 1
 252 735 184 761 108 761 c 2
 104 761 l 1
 73 761 57 772 57 794 c 0
 57 812 73 821 104 821 c 1
 203 821 291 793 367 736 c 1
 438 807 l 0
EndSplineSet
EndChar

StartChar: u10C92
Encoding: 18 68754 16
Width: 456
VWidth: 0
Flags: W
VStem: 286.26 93<16.1006 729>
LayerCount: 2
Back
Fore
SplineSet
286.259765625 729 m 1
 130.259765625 647 l 2
 105.259765625 633 82.259765625 633 59.259765625 648 c 0
 36.259765625 663 39.259765625 679 68.259765625 693 c 2
 298.259765625 815 l 2
 312.259765625 819 324.259765625 822 333.259765625 822 c 0
 364.259765625 822 379.259765625 812 379.259765625 794 c 2
 379.259765625 42 l 2
 379.259765625 24 364.259765625 13 333.259765625 13 c 0
 302.259765625 13 286.259765625 24 286.259765625 42 c 2
 286.259765625 729 l 1
EndSplineSet
EndChar

StartChar: u10CB0
Encoding: 48 68784 17
Width: 657
VWidth: 0
Flags: W
VStem: 278.593 97<16.7369 411 579 818.536>
LayerCount: 2
Back
Fore
SplineSet
375.592773438 575 m 1
 518.592773438 801 l 2
 528.592773438 821 548.592773438 827 579.592773438 819 c 0
 608.592773438 810 618.592773438 796 608.592773438 779 c 2
 375.592773438 411 l 1
 375.592773438 42 l 2
 375.592773438 24 358.592773438 13 324.592773438 13 c 0
 293.592773438 13 278.592773438 24 278.592773438 42 c 2
 278.592773438 414 l 1
 50.5927734375 779 l 2
 38.5927734375 795 45.5927734375 810 74.5927734375 819 c 0
 103.592773438 826 125.592773438 819 139.592773438 801 c 2
 278.592773438 579 l 1
 278.592773438 794 l 2
 278.592773438 812 293.592773438 822 324.592773438 822 c 0
 358.592773438 822 375.592773438 812 375.592773438 794 c 2
 375.592773438 575 l 1
EndSplineSet
EndChar

StartChar: u10CEF
Encoding: 105 68847 18
Width: 570
VWidth: 0
Flags: W
VStem: 76 70<93 225 285 417 476 632.027> 421 74<25.0145 182 242 368 428 562>
LayerCount: 2
Back
Fore
SplineSet
76 611 m 1
 76 625 87 633 111 633 c 0
 135 633 146 625 146 611 c 2
 146 476 l 1
 432 625 l 2
 440 630 449 633 457 633 c 0
 482 633 495 625 495 611 c 2
 495 44 l 2
 495 30 482 24 457 24 c 0
 433 24 421 30 421 44 c 2
 421 182 l 1
 138 29 l 2
 132 26 123 24 111 24 c 0
 87 24 76 30 76 44 c 2
 76 611 l 1
146 417 m 1
 146 285 l 1
 421 428 l 1
 421 438 l 1
 421 562 l 1
 146 417 l 1
146 225 m 1
 146 217 l 1
 146 93 l 1
 421 242 l 1
 421 368 l 1
 146 225 l 1
EndSplineSet
EndChar

StartChar: u10CCE
Encoding: 72 68814 19
Width: 519
VWidth: 0
Flags: W
HStem: 209 43<49.0081 224 297 471.991> 398 45<102.079 224 297 418.921>
VStem: 224 73<25.0145 209 252 398 443 631.707>
LayerCount: 2
Back
Fore
SplineSet
224 611 m 1
 224 625 236 633 262 633 c 0
 286 633 297 625 297 611 c 2
 297 443 l 1
 381 443 l 2
 407 443 419 436 419 422 c 0
 419 406 407 398 381 398 c 2
 297 398 l 1
 297 252 l 1
 434 252 l 2
 460 252 472 244 472 230 c 0
 472 216 460 209 434 209 c 2
 297 209 l 1
 297 44 l 2
 297 30 286 24 262 24 c 0
 236 24 224 30 224 44 c 2
 224 209 l 1
 86 209 l 2
 60 209 49 216 49 230 c 0
 49 244 60 252 86 252 c 2
 224 252 l 1
 224 398 l 1
 140 398 l 2
 114 398 102 406 102 422 c 0
 102 436 114 443 140 443 c 2
 224 443 l 1
 224 611 l 1
EndSplineSet
EndChar

StartChar: u10CDA
Encoding: 84 68826 20
Width: 490
VWidth: 0
Flags: W
VStem: 76 73<69 586> 359 74<220.01 436.443>
LayerCount: 2
Back
Fore
SplineSet
76 610 m 1
 76 626 87 634 111 634 c 1
 111 634 111 634 112 634 c 0
 113 634 115 634 117 634 c 0
 207 631 282 599 343 540 c 0
 402 481 433 410 433 329 c 1
 433 246 402 175 343 116 c 0
 282 55 207 24 117 24 c 0
 115 24 113 24 112 24 c 0
 111 24 111 24 111 24 c 1
 87 24 76 30 76 44 c 2
 76 610 l 1
149 69 m 1
 201 76 246 99 282 139 c 0
 334 191 359 255 359 329 c 1
 359 403 334 465 282 515 c 0
 246 553 201 577 149 586 c 1
 149 69 l 1
EndSplineSet
EndChar

StartChar: u10CCA
Encoding: 68 68810 21
Width: 475
VWidth: 0
Flags: W
HStem: 24 43<57.0081 189.521> 586 46<57.0323 194.65>
VStem: 338 73<217.994 436.207>
LayerCount: 2
Back
Fore
SplineSet
344 621 m 1
 356 633 373 636 393 628 c 0
 413 620 418 609 406 597 c 2
 333 527 l 1
 385 468 411 402 411 327 c 1
 411 252 385 185 333 128 c 1
 406 58 l 2
 416 46 410 36 390 28 c 0
 370 20 354 23 344 35 c 2
 290 88 l 1
 233 45 167 24 92 24 c 1
 68 24 57 31 57 45 c 0
 57 59 68 67 92 67 c 1
 149 67 203 85 250 128 c 0
 265 141 278 158 290 174 c 0
 324 219 338 272 338 327 c 1
 338 382 324 435 290 482 c 0
 279 498 265 514 250 527 c 0
 205 568 152 586 95 586 c 2
 92 586 l 1
 68 586 57 594 57 610 c 0
 57 624 68 632 92 632 c 1
 167 632 233 610 290 567 c 1
 344 621 l 1
EndSplineSet
EndChar

StartChar: u10C8E
Encoding: 14 68750 22
Width: 661
VWidth: 0
Flags: W
HStem: 260 57<51.7539 284 381 612.246> 511 60<124.428 284 381 540.572>
VStem: 284 97<16.4117 260 317 511 571 818.841>
LayerCount: 2
Back
Fore
SplineSet
284 794 m 0
 284 812 300 822 334 822 c 0
 365 822 381 812 381 794 c 2
 381 571 l 1
 492 571 l 2
 526 571 542 561 542 543 c 0
 542 521 526 511 492 511 c 2
 381 511 l 1
 381 317 l 1
 563 317 l 2
 597 317 613 308 613 289 c 0
 613 270 597 260 563 260 c 2
 381 260 l 1
 381 42 l 2
 381 24 365 13 334 13 c 0
 300 13 284 24 284 42 c 2
 284 260 l 1
 101 260 l 2
 67 260 51 270 51 289 c 0
 51 308 67 317 101 317 c 2
 284 317 l 1
 284 511 l 1
 173 511 l 2
 139 511 123 521 123 543 c 0
 123 561 139 571 173 571 c 2
 284 571 l 1
 284 794 l 0
EndSplineSet
EndChar

StartChar: u10CEB
Encoding: 101 68843 23
Width: 574
VWidth: 0
Flags: W
VStem: 76 72<164 489> 426 73<164 489>
LayerCount: 2
Back
Fore
SplineSet
76 44 m 2
 76 608 l 2
 76 619 83 627 99 630 c 0
 119 635 135 632 145 620 c 2
 286 390 l 1
 429 620 l 2
 437 633 452 636 475 630 c 0
 491 627 499 619 499 608 c 1
 499 44 l 2
 499 30 487 24 461 24 c 0
 443 24 431 28 426 39 c 2
 286 266 l 1
 145 37 l 1
 138 28 127 24 111 24 c 0
 87 24 76 30 76 44 c 2
426 489 m 1
 326 329 l 1
 426 164 l 1
 426 489 l 1
148 164 m 1
 248 329 l 1
 148 489 l 1
 148 164 l 1
EndSplineSet
EndChar

StartChar: u10CA6
Encoding: 38 68774 24
Width: 616
VWidth: 0
Flags: W
VStem: 441 98<16.5043 411 521 818.536>
LayerCount: 2
Back
Fore
SplineSet
47 726 m 1
 47 815 l 1
 47 726 l 1
441 411 m 1
 73 776 l 2
 57 790 61 805 90 819 c 1
 117 826 139 822 155 808 c 2
 441 521 l 1
 441 794 l 2
 441 812 456 822 488 822 c 0
 521 822 539 812 539 794 c 2
 539 42 l 2
 539 23 521 13 488 13 c 0
 456 13 441 23 441 42 c 2
 441 411 l 1
EndSplineSet
EndChar

StartChar: u10C9F
Encoding: 31 68767 25
Width: 829
VWidth: 0
Flags: W
LayerCount: 2
Back
Fore
SplineSet
312.853515625 26 m 2
 311.853515625 25 309.853515625 24 307.853515625 23 c 1
 307.853515625 22 l 1
 306.853515625 22 l 2
 303.853515625 20 299.853515625 17 295.853515625 16 c 2
 294.853515625 16 l 1
 294.853515625 15 l 1
 293.853515625 15 l 2
 287.853515625 13 280.853515625 13 273.853515625 13 c 0
 266.853515625 13 260.853515625 13 254.853515625 15 c 2
 253.853515625 15 l 1
 253.853515625 16 l 1
 252.853515625 16 l 1
 248.853515625 17 244.853515625 20 240.853515625 22 c 0
 238.853515625 23 235.853515625 24 234.853515625 25 c 2
 222.853515625 35 212.853515625 44 202.853515625 53 c 0
 192.853515625 62 181.853515625 71 171.853515625 81 c 0
 121.853515625 129 82.853515625 178 53.853515625 227 c 0
 44.853515625 242 57.853515625 259 82.853515625 264 c 0
 107.853515625 269 134.853515625 262 143.853515625 247 c 0
 170.853515625 203 206.853515625 158 253.853515625 113 c 0
 259.853515625 107 266.853515625 100 273.853515625 93 c 1
 394.853515625 201 455.853515625 308 455.853515625 416 c 0
 455.853515625 535 380.853515625 655 234.853515625 776 c 0
 219.853515625 789 223.853515625 807 245.853515625 816 c 0
 267.853515625 825 296.853515625 824 311.853515625 811 c 0
 433.853515625 711 509.853515625 609 538.853515625 509 c 1
 680.853515625 651 l 2
 693.853515625 664 723.853515625 670 746.853515625 662 c 0
 769.853515625 654 775.853515625 635 762.853515625 622 c 2
 559.853515625 418 l 1
 773.853515625 203 l 2
 786.853515625 190 781.853515625 171 758.853515625 163 c 0
 735.853515625 155 704.853515625 160 691.853515625 173 c 2
 538.853515625 326 l 1
 510.853515625 225 435.853515625 125 312.853515625 26 c 2
EndSplineSet
EndChar

StartChar: u10C91
Encoding: 17 68753 26
Width: 430
VWidth: 0
Flags: W
VStem: 170.385 97<16.7369 667>
LayerCount: 2
Back
Fore
SplineSet
306.384765625 814 m 2
 325.384765625 826 347.384765625 825 370.384765625 811 c 0
 393.384765625 797 392.384765625 783 368.384765625 771 c 2
 267.384765625 717 l 1
 267.384765625 42 l 2
 267.384765625 24 250.384765625 13 216.384765625 13 c 0
 185.384765625 13 170.384765625 24 170.384765625 42 c 2
 170.384765625 667 l 1
 134.384765625 646 l 2
 105.384765625 632 80.384765625 632 57.384765625 646 c 0
 34.384765625 660 39.384765625 676 69.384765625 689 c 2
 306.384765625 814 l 2
EndSplineSet
EndChar

StartChar: u10CD9
Encoding: 83 68825 27
Width: 470
VWidth: 0
Flags: W
HStem: 24 45<57.0793 191.029> 591 43<57.0088 180.121>
VStem: 342 71<221.863 434.45>
LayerCount: 2
Back
Fore
SplineSet
95 591 m 1
 69 591 57 598 57 612 c 0
 57 626 69 634 95 634 c 1
 187 634 264 602 326 539 c 0
 383 481 413 410 413 327 c 1
 413 242 383 172 326 118 c 0
 263 55 185 24 95 24 c 1
 69 24 57 31 57 45 c 0
 57 61 69 69 95 69 c 1
 156 69 212 92 263 139 c 0
 315 192 342 255 342 327 c 1
 342 402 315 464 263 517 c 1
 212 562 156 587 95 591 c 1
EndSplineSet
EndChar

StartChar: u10CD7
Encoding: 81 68823 28
Width: 537
VWidth: 0
Flags: W
HStem: 24 59<246.047 294.72> 572 61<247.89 294.72>
VStem: 61 73<248.137 425.002> 412 70<231.631 422.811>
LayerCount: 2
Back
Fore
SplineSet
271 24 m 0
 259 24 249 27 242 32 c 0
 122 130 61 229 61 328 c 0
 61 428 122 528 242 625 c 0
 249 630 259 633 271 633 c 0
 283 633 295 630 304 625 c 0
 423 525 482 425 482 328 c 0
 482 229 423 130 304 32 c 0
 295 27 283 24 271 24 c 0
271 572 m 1
 255 558 242 544 231 532 c 0
 166 463 134 397 134 328 c 0
 134 309 137 290 141 275 c 0
 145 260 149 250 151 247 c 2
 245 339 l 2
 251 347 264 349 288 344 c 0
 312 339 316 329 304 316 c 2
 274 285 l 1
 271 282 l 1
 177 190 l 1
 206 145 237 110 271 83 c 1
 274 83 l 1
 366 165 412 247 412 328 c 0
 412 407 366 487 274 572 c 1
 274 572 274 572 273 572 c 0
 272 572 271 572 271 572 c 1
EndSplineSet
EndChar

StartChar: u10CA0
Encoding: 32 68768 29
Width: 594
VWidth: 0
Flags: W
VStem: 419.772 97<16.5043 230 306 479 555 728>
LayerCount: 2
Back
Fore
SplineSet
143.772460938 82 m 1
 119.772460938 68 98.7724609375 68 76.7724609375 82 c 0
 54.7724609375 96 55.7724609375 111 79.7724609375 125 c 2
 419.772460938 306 l 1
 419.772460938 479 l 1
 249.772460938 389 l 1
 143.772460938 335 l 2
 117.772460938 320 95.7724609375 320 72.7724609375 334 c 0
 49.7724609375 349 52.7724609375 366 82.7724609375 382 c 2
 213.772460938 451 l 1
 419.772460938 555 l 1
 419.772460938 577 l 1
 419.772460938 728 l 1
 177.772460938 602 l 1
 148.772460938 584 l 2
 118.772460938 570 94.7724609375 570 71.7724609375 582 c 0
 48.7724609375 595 52.7724609375 610 82.7724609375 627 c 2
 433.772460938 811 l 2
 446.772460938 818 457.772460938 822 465.772460938 822 c 0
 499.772460938 822 516.772460938 812 516.772460938 790 c 2
 516.772460938 42 l 2
 516.772460938 23 499.772460938 13 465.772460938 13 c 0
 434.772460938 13 419.772460938 23 419.772460938 42 c 2
 419.772460938 230 l 1
 143.772460938 82 l 1
EndSplineSet
EndChar

StartChar: u10CEC
Encoding: 102 68844 30
Width: 547
VWidth: 0
Flags: W
HStem: 134 44<207.933 341.519> 476 44<209.314 342.603>
VStem: 68.2471 73<245.893 408.403> 410.247 72<247.708 406.577>
LayerCount: 2
Back
Fore
SplineSet
416.247070312 616 m 2
 423.247070312 627 444.247070312 634 462.247070312 630 c 0
 480.247070312 626 490.247070312 612 483.247070312 601 c 2
 406.247070312 477 l 1
 413.247070312 472 420.247070312 466 426.247070312 460 c 0
 460.247070312 426 482.247070312 378 482.247070312 327 c 1
 482.247070312 276 460.247070312 229 426.247070312 195 c 0
 420.247070312 189 413.247070312 182 406.247070312 177 c 1
 483.247070312 53 l 2
 490.247070312 42 480.247070312 29 462.247070312 25 c 0
 444.247070312 21 423.247070312 26 416.247070312 37 c 2
 348.247070312 146 l 1
 325.247070312 138 301.247070312 134 275.247070312 134 c 1
 249.247070312 134 225.247070312 138 202.247070312 146 c 1
 134.247070312 37 l 2
 127.247070312 26 106.247070312 21 88.2470703125 25 c 0
 70.2470703125 29 60.2470703125 42 67.2470703125 53 c 2
 144.247070312 177 l 1
 137.247070312 182 129.247070312 189 123.247070312 195 c 0
 89.2470703125 229 68.2470703125 276 68.2470703125 327 c 1
 68.2470703125 378 89.2470703125 426 123.247070312 460 c 0
 129.247070312 466 137.247070312 472 144.247070312 477 c 1
 67.2470703125 601 l 2
 60.2470703125 612 70.2470703125 626 88.2470703125 630 c 0
 106.247070312 634 127.247070312 627 134.247070312 616 c 2
 202.247070312 508 l 1
 225.247070312 516 249.247070312 520 275.247070312 520 c 1
 301.247070312 520 325.247070312 516 348.247070312 508 c 1
 416.247070312 616 l 2
212.247070312 458 m 0
 211.247070312 458 210.247070312 457 209.247070312 457 c 0
 200.247070312 452 192.247070312 443 185.247070312 436 c 0
 157.247070312 408 141.247070312 370 141.247070312 327 c 1
 141.247070312 284 157.247070312 246 185.247070312 218 c 0
 192.247070312 211 200.247070312 203 209.247070312 198 c 0
 210.247070312 198 211.247070312 198 212.247070312 197 c 0
 231.247070312 186 252.247070312 178 275.247070312 178 c 1
 298.247070312 178 319.247070312 186 338.247070312 197 c 0
 339.247070312 198 339.247070312 198 340.247070312 198 c 0
 349.247070312 203 358.247070312 211 365.247070312 218 c 0
 393.247070312 246 410.247070312 284 410.247070312 327 c 1
 410.247070312 370 393.247070312 408 365.247070312 436 c 0
 358.247070312 443 349.247070312 452 340.247070312 457 c 0
 339.247070312 457 339.247070312 457 338.247070312 458 c 0
 319.247070312 469 298.247070312 476 275.247070312 476 c 1
 252.247070312 476 231.247070312 469 212.247070312 458 c 0
EndSplineSet
EndChar

StartChar: u10C82
Encoding: 2 68738 31
Width: 673
VWidth: 0
Flags: W
LayerCount: 2
Back
Fore
SplineSet
523.709960938 806 m 2
 535.709960938 820 557.709960938 825 588.709960938 821 c 0
 619.709960938 817 626.709960938 804 612.709960938 784 c 2
 388.709960938 420 l 1
 612.709960938 54 l 2
 626.709960938 35 619.709960938 22 587.709960938 16 c 0
 555.709960938 10 534.709960938 17 523.709960938 34 c 2
 338.709960938 337 l 1
 151.709960938 34 l 2
 139.709960938 17 117.709960938 10 85.7099609375 14 c 0
 53.7099609375 18 45.7099609375 31 62.7099609375 54 c 2
 283.709960938 420 l 1
 62.7099609375 784 l 2
 46.7099609375 807 54.7099609375 820 87.7099609375 824 c 0
 120.709960938 828 141.709960938 822 151.709960938 806 c 2
 338.709960938 502 l 1
 523.709960938 806 l 2
EndSplineSet
EndChar

StartChar: u10CF0
Encoding: 106 68848 32
Width: 523
VWidth: 0
Flags: W
VStem: 224.023 73<25.0145 323 450 631.707>
LayerCount: 2
Back
Fore
SplineSet
297.0234375 446 m 1
 405.0234375 616 l 2
 413.0234375 631 427.0234375 636 451.0234375 630 c 0
 473.0234375 623 479.0234375 613 472.0234375 600 c 2
 297.0234375 323 l 1
 297.0234375 44 l 2
 297.0234375 30 285.0234375 24 259.0234375 24 c 0
 235.0234375 24 224.0234375 30 224.0234375 44 c 2
 224.0234375 325 l 1
 52.0234375 600 l 2
 43.0234375 612 49.0234375 623 71.0234375 630 c 0
 93.0234375 635 108.0234375 630 119.0234375 616 c 2
 224.0234375 450 l 1
 224.0234375 611 l 2
 224.0234375 625 235.0234375 633 259.0234375 633 c 0
 285.0234375 633 297.0234375 625 297.0234375 611 c 2
 297.0234375 446 l 1
EndSplineSet
EndChar

StartChar: u10C81
Encoding: 1 68737 33
Width: 685
VWidth: 0
Flags: W
VStem: 510.789 97<17.166 246 328 724>
LayerCount: 2
Back
Fore
SplineSet
607.7890625 42 m 2
 607.7890625 23 592.7890625 13 561.7890625 13 c 0
 529.7890625 13 514.7890625 23 514.7890625 42 c 1
 510.7890625 42 l 1
 510.7890625 246 l 1
 67.7890625 503 l 1
 67.7890625 503 65.7890625 504 63.7890625 505 c 0
 61.7890625 506 60.7890625 507 60.7890625 507 c 2
 42.7890625 520 43.7890625 535 63.7890625 549 c 2
 518.7890625 806 l 2
 537.7890625 818 552.7890625 824 561.7890625 824 c 0
 592.7890625 824 607.7890625 815 607.7890625 796 c 2
 607.7890625 42 l 2
510.7890625 328 m 1
 510.7890625 724 l 1
 167.7890625 527 l 1
 510.7890625 328 l 1
EndSplineSet
EndChar

StartChar: u10C86
Encoding: 6 68742 34
Width: 716
VWidth: 0
Flags: W
VStem: 77 97<106 534 609 819.058> 546 93<15.8992 230 309 728>
LayerCount: 2
Back
Fore
SplineSet
77 794 m 0
 77 813 93 822 127 822 c 0
 158 822 174 813 174 794 c 2
 174 742 l 1
 174 609 l 1
 561 815 l 2
 570 819 581 822 593 822 c 0
 624 822 639 813 639 794 c 2
 639 42 l 2
 639 23 624 13 593 13 c 0
 561 13 546 23 546 42 c 2
 546 230 l 1
 160 20 l 1
 146 15 134 13 127 13 c 0
 93 13 77 23 77 42 c 2
 77 794 l 0
174 534 m 1
 174 106 l 1
 546 309 l 1
 546 728 l 1
 174 534 l 1
EndSplineSet
EndChar

StartChar: u10C87
Encoding: 7 68743 35
Width: 667
VWidth: 0
Flags: W
HStem: 391 59<54.8955 289 382 615.107>
VStem: 289 93<16.1006 391 450 821.333>
LayerCount: 2
Back
Fore
SplineSet
101 391 m 0
 69 391 54 401 54 420 c 0
 54 439 69 450 101 450 c 2
 289 450 l 1
 289 796 l 2
 289 815 304 824 335 824 c 0
 367 824 382 815 382 796 c 2
 382 450 l 1
 570 450 l 2
 601 450 616 439 616 420 c 0
 616 401 601 391 570 391 c 2
 382 391 l 1
 382 42 l 2
 382 24 367 13 335 13 c 0
 304 13 289 24 289 42 c 2
 289 391 l 1
 101 391 l 0
EndSplineSet
EndChar

StartChar: u10CC7
Encoding: 65 68807 36
Width: 526
VWidth: 0
Flags: W
HStem: 308 44<53.0088 230 301 476.992>
VStem: 230 71<24.8823 308 352 632.872>
LayerCount: 2
Back
Fore
SplineSet
89 308 m 0
 65 308 53 316 53 330 c 0
 53 344 65 352 89 352 c 2
 230 352 l 1
 230 612 l 2
 230 626 241 634 265 634 c 0
 289 634 301 626 301 612 c 2
 301 352 l 1
 442 352 l 2
 466 352 477 344 477 330 c 0
 477 316 466 308 442 308 c 2
 301 308 l 1
 301 44 l 2
 301 30 289 24 265 24 c 0
 241 24 230 30 230 44 c 2
 230 308 l 1
 89 308 l 0
EndSplineSet
EndChar

StartChar: u10CD1
Encoding: 75 68817 37
Width: 348
VWidth: 0
Flags: W
VStem: 140.82 73<25.0145 515>
LayerCount: 2
Back
Fore
SplineSet
242.8203125 626 m 1
 256.8203125 635 272.8203125 634 289.8203125 624 c 0
 306.8203125 614 306.8203125 603 288.8203125 594 c 2
 213.8203125 553 l 1
 213.8203125 44 l 2
 213.8203125 30 201.8203125 24 175.8203125 24 c 0
 151.8203125 24 140.8203125 30 140.8203125 44 c 2
 140.8203125 515 l 1
 112.8203125 500 l 2
 90.8203125 489 71.8203125 489 55.8203125 500 c 0
 39.8203125 511 40.8203125 521 63.8203125 531 c 2
 242.8203125 626 l 1
EndSplineSet
EndChar

StartChar: u10CA5
Encoding: 37 68773 38
Width: 249
VWidth: 0
Flags: W
VStem: 77 95<16.4117 818.841>
LayerCount: 2
Back
Fore
SplineSet
77 794 m 0
 77 812 91 822 122 822 c 0
 156 822 172 812 172 794 c 2
 172 42 l 2
 172 24 156 13 122 13 c 0
 91 13 77 24 77 42 c 2
 77 794 l 0
EndSplineSet
EndChar

StartChar: u10CE6
Encoding: 96 68838 39
Width: 497
VWidth: 0
Flags: W
VStem: 349 73<25.1536 323 406 631.707>
LayerCount: 2
Back
Fore
SplineSet
52 559 m 1
 52 628 l 1
 52 559 l 1
349 323 m 1
 72 598 l 2
 60 608 63 619 85 630 c 1
 104 635 121 633 133 622 c 2
 349 406 l 1
 349 611 l 2
 349 625 360 633 384 633 c 0
 409 633 422 625 422 611 c 2
 422 45 l 2
 422 31 409 24 384 24 c 0
 360 24 349 31 349 45 c 2
 349 323 l 1
EndSplineSet
EndChar

StartChar: u10CE4
Encoding: 94 68836 40
Width: 529
VWidth: 0
Flags: W
LayerCount: 2
Back
Fore
SplineSet
125.51953125 46 m 2
 118.51953125 29 104.51953125 21 80.51953125 24 c 0
 56.51953125 27 49.51953125 36 54.51953125 49 c 2
 228.51953125 615 l 2
 233.51953125 626 246.51953125 633 265.51953125 633 c 0
 284.51953125 633 297.51953125 626 301.51953125 615 c 2
 475.51953125 49 l 2
 479.51953125 36 470.51953125 27 446.51953125 24 c 0
 422.51953125 21 408.51953125 29 403.51953125 46 c 2
 263.51953125 493 l 1
 125.51953125 46 l 2
EndSplineSet
EndChar

StartChar: u10CDB
Encoding: 85 68827 41
Width: 489
VWidth: 0
Flags: W
VStem: 361.753 72<228.352 419.522>
LayerCount: 2
Back
Fore
SplineSet
224.752929688 567 m 1
 179.752929688 527 147.752929688 491 128.752929688 455 c 0
 117.752929688 439 101.752929688 432 78.7529296875 436 c 0
 55.7529296875 440 51.7529296875 451 61.7529296875 468 c 0
 78.7529296875 501 108.752929688 537 149.752929688 578 c 2
 149.752929688 578 165.752929688 592 197.752929688 621 c 0
 213.752929688 634 232.752929688 634 254.752929688 621 c 0
 374.752929688 520 433.752929688 420 433.752929688 324 c 0
 433.752929688 226 374.752929688 128 254.752929688 31 c 0
 245.752929688 26 234.752929688 24 224.752929688 24 c 0
 210.752929688 24 183.752929688 40 143.752929688 74 c 0
 105.752929688 106 77.7529296875 143 55.7529296875 184 c 0
 48.7529296875 195 54.7529296875 203 77.7529296875 207 c 0
 100.752929688 211 116.752929688 208 123.752929688 198 c 0
 148.752929688 160 181.752929688 121 224.752929688 82 c 1
 315.752929688 162 361.752929688 243 361.752929688 324 c 0
 361.752929688 406 315.752929688 486 224.752929688 567 c 1
EndSplineSet
EndChar

StartChar: u10CAC
Encoding: 44 68780 42
Width: 680
VWidth: 0
Flags: W
HStem: 161 58<263.327 419.951> 614 59<261.27 421.278>
VStem: 68.1094 95<323.274 510.511> 520.109 96<323.062 510.618>
LayerCount: 2
Back
Fore
SplineSet
528.109375 802 m 2
 537.109375 817 565.109375 824 590.109375 818 c 0
 615.109375 812 627.109375 796 618.109375 781 c 2
 516.109375 615 l 1
 525.109375 608 535.109375 600 543.109375 592 c 0
 588.109375 547 616.109375 486 616.109375 417 c 1
 616.109375 348 588.109375 287 543.109375 242 c 0
 535.109375 234 525.109375 225 516.109375 218 c 1
 618.109375 52 l 2
 627.109375 37 615.109375 21 590.109375 15 c 0
 565.109375 9 537.109375 17 528.109375 32 c 2
 438.109375 177 l 1
 408.109375 167 377.109375 161 342.109375 161 c 1
 307.109375 161 275.109375 167 245.109375 177 c 1
 155.109375 32 l 2
 146.109375 17 118.109375 9 93.109375 15 c 0
 68.109375 21 57.109375 37 66.109375 52 c 2
 168.109375 218 l 1
 159.109375 225 148.109375 234 140.109375 242 c 0
 95.109375 287 68.109375 348 68.109375 417 c 1
 67.109375 417 l 1
 68.109375 417 l 1
 68.109375 486 95.109375 547 140.109375 592 c 0
 148.109375 600 159.109375 608 168.109375 615 c 1
 66.109375 781 l 2
 57.109375 796 68.109375 812 93.109375 818 c 0
 118.109375 824 146.109375 817 155.109375 802 c 2
 245.109375 656 l 1
 275.109375 666 307.109375 673 342.109375 673 c 1
 377.109375 673 408.109375 666 438.109375 656 c 1
 528.109375 802 l 2
258.109375 590 m 0
 257.109375 589 256.109375 590 255.109375 589 c 0
 244.109375 582 232.109375 572 222.109375 562 c 0
 185.109375 525 163.109375 474 163.109375 417 c 1
 163.109375 360 185.109375 308 222.109375 271 c 0
 232.109375 261 244.109375 253 255.109375 246 c 0
 256.109375 245 257.109375 245 258.109375 244 c 0
 284.109375 229 312.109375 219 342.109375 219 c 1
 372.109375 219 399.109375 229 425.109375 244 c 0
 426.109375 245 427.109375 245 428.109375 246 c 0
 439.109375 253 451.109375 261 461.109375 271 c 0
 498.109375 308 520.109375 360 520.109375 417 c 1
 520.109375 474 498.109375 525 461.109375 562 c 0
 451.109375 572 439.109375 582 428.109375 589 c 0
 427.109375 590 426.109375 589 425.109375 590 c 0
 399.109375 605 372.109375 614 342.109375 614 c 1
 312.109375 614 284.109375 605 258.109375 590 c 0
EndSplineSet
EndChar

StartChar: u10CCC
Encoding: 70 68812 43
Width: 534
VWidth: 0
Flags: W
VStem: 61 73<229.394 423.73> 408 71<230.024 422.601>
LayerCount: 2
Back
Fore
SplineSet
232 328 m 1
 163 439 l 1
 144 401 134 365 134 327 c 0
 134 290 144 252 163 215 c 1
 232 328 l 1
339 155 m 1
 270 265 l 1
 202 155 l 1
 220 131 243 107 270 83 c 1
 297 107 321 131 339 155 c 1
309 328 m 1
 379 215 l 1
 397 252 408 290 408 327 c 0
 408 365 397 401 378 439 c 1
 309 328 l 1
203 501 m 1
 270 390 l 1
 339 500 l 1
 321 524 297 547 270 572 c 1
 243 547 221 525 203 501 c 1
242 624 m 2
 243 625 244 625 245 626 c 2
 246 627 l 1
 249 628 252 629 255 630 c 0
 260 632 265 633 270 633 c 2
 271 633 l 2
 276 633 282 632 287 630 c 0
 290 629 293 628 296 627 c 2
 296 626 l 1
 297 626 l 1
 298 625 299 625 300 624 c 0
 343 588 379 552 407 516 c 0
 411 513 413 510 414 506 c 0
 458 447 479 386 479 327 c 0
 479 266 457 204 412 144 c 1
 383 106 346 69 300 32 c 0
 299 31 297 31 296 30 c 2
 294 29 291 27 288 26 c 2
 287 26 l 1
 286 26 l 1
 286 25 l 2
 281 24 275 24 270 24 c 0
 265 24 261 24 256 25 c 2
 256 26 l 1
 255 26 l 1
 254 26 l 2
 251 27 249 28 246 30 c 2
 245 30 l 1
 244 31 243 32 242 33 c 0
 122 130 61 228 61 327 c 0
 61 387 84 447 128 507 c 0
 129 510 131 512 134 515 c 0
 162 551 198 588 241 624 c 1
 242 624 l 2
EndSplineSet
EndChar

StartChar: u10CD6
Encoding: 80 68822 44
Width: 532
VWidth: 0
Flags: W
LayerCount: 2
Back
Fore
SplineSet
366.900390625 172 m 1
 322.900390625 34 l 2
 320.900390625 27 311.900390625 24 297.900390625 24 c 0
 283.900390625 24 278.900390625 29 282.900390625 40 c 2
 343.900390625 240 l 1
 316.900390625 332 l 1
 225.900390625 34 l 2
 223.900390625 27 215.900390625 24 202.900390625 24 c 0
 189.900390625 24 182.900390625 29 186.900390625 40 c 2
 295.900390625 399 l 1
 265.900390625 494 l 1
 127.900390625 47 l 2
 122.900390625 31 107.900390625 24 82.900390625 24 c 0
 57.900390625 24 49.900390625 33 55.900390625 52 c 2
 230.900390625 614 l 2
 234.900390625 625 246.900390625 633 265.900390625 633 c 0
 284.900390625 633 297.900390625 625 301.900390625 614 c 2
 476.900390625 52 l 2
 483.900390625 33 474.900390625 24 448.900390625 24 c 0
 422.900390625 24 406.900390625 31 402.900390625 47 c 2
 366.900390625 172 l 1
EndSplineSet
EndChar

StartChar: u10CCD
Encoding: 71 68813 45
Width: 526
VWidth: 0
Flags: W
VStem: 54.5176 71<25.3128 65.9888> 403.518 69<25.3128 65.7689>
LayerCount: 2
Back
Fore
SplineSet
125.517578125 43 m 2
 122.517578125 28 109.517578125 21 85.517578125 24 c 0
 61.517578125 26 51.517578125 36 54.517578125 52 c 2
 227.517578125 612 l 2
 233.517578125 625 245.517578125 632 264.517578125 632 c 0
 283.517578125 632 296.517578125 625 300.517578125 612 c 2
 369.517578125 383 l 1
 369.517578125 383 369.517578125 383 369.517578125 382 c 0
 369.517578125 381 369.517578125 381 369.517578125 381 c 1
 472.517578125 52 l 2
 474.517578125 36 465.517578125 26 441.517578125 24 c 0
 417.517578125 21 405.517578125 28 403.517578125 43 c 2
 335.517578125 259 l 1
 268.517578125 43 l 2
 264.517578125 28 251.517578125 21 227.517578125 24 c 0
 203.517578125 26 194.517578125 36 197.517578125 52 c 2
 298.517578125 378 l 1
 265.517578125 492 l 1
 125.517578125 43 l 2
EndSplineSet
EndChar

StartChar: u10CC1
Encoding: 59 68801 46
Width: 550
VWidth: 0
Flags: W
VStem: 401.514 73<25.3125 198 260 559>
LayerCount: 2
Back
Fore
SplineSet
474.513671875 45 m 1
 474.513671875 31 463.513671875 24 439.513671875 24 c 0
 415.513671875 24 404.513671875 31 404.513671875 45 c 1
 401.513671875 45 l 1
 401.513671875 198 l 1
 67.513671875 392 l 1
 67.513671875 392 67.513671875 392 65.513671875 393 c 0
 63.513671875 394 62.513671875 394 62.513671875 394 c 2
 49.513671875 404 49.513671875 416 64.513671875 427 c 2
 406.513671875 621 l 2
 420.513671875 630 432.513671875 634 439.513671875 634 c 0
 463.513671875 634 474.513671875 626 474.513671875 612 c 2
 474.513671875 45 l 1
401.513671875 260 m 1
 401.513671875 559 l 1
 143.513671875 411 l 1
 401.513671875 260 l 1
EndSplineSet
EndChar

StartChar: u10C9B
Encoding: 27 68763 47
Width: 613
VWidth: 0
Flags: W
VStem: 462.329 95<301.754 522.14>
LayerCount: 2
Back
Fore
SplineSet
280.329101562 735 m 1
 221.329101562 683 178.329101562 633 152.329101562 586 c 0
 138.329101562 564 116.329101562 556 86.3291015625 561 c 0
 56.3291015625 566 50.3291015625 580 64.3291015625 604 c 0
 88.3291015625 647 126.329101562 696 180.329101562 750 c 1
 180.329101562 750 202.329101562 768 244.329101562 806 c 0
 267.329101562 823 291.329101562 823 320.329101562 806 c 1
 479.329101562 671 557.329101562 540 557.329101562 412 c 0
 557.329101562 282 479.329101562 153 320.329101562 24 c 0
 308.329101562 17 294.329101562 13 280.329101562 13 c 0
 261.329101562 13 225.329101562 36 173.329101562 81 c 0
 123.329101562 123 85.3291015625 172 56.3291015625 226 c 0
 47.3291015625 240 56.3291015625 251 86.3291015625 257 c 0
 116.329101562 263 136.329101562 259 145.329101562 245 c 0
 178.329101562 195 223.329101562 143 280.329101562 91 c 1
 401.329101562 197 462.329101562 304 462.329101562 412 c 0
 462.329101562 521 401.329101562 627 280.329101562 735 c 1
EndSplineSet
EndChar

StartChar: u10C98
Encoding: 24 68760 48
Width: 555
VWidth: 0
Flags: W
VStem: 381 97<114 350 485 722>
LayerCount: 2
Back
Fore
SplineSet
381 350 m 1
 174 236 l 1
 381 114 l 1
 381 350 l 1
393 24 m 2
 70 213 l 1
 46 227 46 242 70 256 c 2
 360 418 l 1
 77 586 l 1
 77 586 76 586 75 586 c 0
 74 586 73 586 73 586 c 1
 49 598 50 612 77 626 c 2
 388 811 l 2
 397 818 411 822 428 822 c 0
 461 822 478 812 478 794 c 2
 478 42 l 2
 478 24 461 13 428 13 c 0
 416 13 404 17 393 24 c 2
381 722 m 1
 177 604 l 1
 381 485 l 1
 381 722 l 1
EndSplineSet
EndChar

StartChar: u10CDC
Encoding: 86 68828 49
Width: 488
VWidth: 0
Flags: W
VStem: 359.939 73<225.943 422.618>
LayerCount: 2
Back
Fore
SplineSet
209.939453125 556 m 0
 178.939453125 527 151.939453125 494 126.939453125 456 c 0
 119.939453125 440 104.939453125 434 80.939453125 438 c 0
 56.939453125 442 49.939453125 454 58.939453125 470 c 0
 75.939453125 502 96.939453125 529 116.939453125 549 c 0
 136.939453125 569 166.939453125 595 204.939453125 626 c 0
 220.939453125 636 236.939453125 635 252.939453125 623 c 0
 372.939453125 523 432.939453125 422 432.939453125 324 c 0
 432.939453125 224 372.939453125 126 252.939453125 31 c 0
 247.939453125 26 236.939453125 24 222.939453125 24 c 0
 210.939453125 24 201.939453125 26 194.939453125 31 c 1
 144.939453125 74 l 2
 106.939453125 106 78.939453125 142 56.939453125 184 c 0
 50.939453125 189 51.939453125 196 58.939453125 203 c 2
 194.939453125 338 l 2
 205.939453125 349 220.939453125 351 244.939453125 345 c 0
 266.939453125 337 268.939453125 327 254.939453125 316 c 2
 128.939453125 186 l 1
 142.939453125 161 168.939453125 131 206.939453125 95 c 1
 225.939453125 82 l 1
 315.939453125 163 359.939453125 243 359.939453125 324 c 0
 359.939453125 407 315.939453125 487 225.939453125 568 c 1
 209.939453125 556 l 0
EndSplineSet
EndChar

StartChar: u10CE0
Encoding: 90 68832 50
Width: 477
VWidth: 0
Flags: W
VStem: 330.235 72<25.0049 186 244 374 431 561>
LayerCount: 2
Back
Fore
SplineSet
123.235351562 75 m 1
 105.235351562 64 87.2353515625 65 71.2353515625 75 c 0
 55.2353515625 85 56.2353515625 97 74.2353515625 108 c 2
 330.235351562 244 l 1
 330.235351562 374 l 1
 202.235351562 306 l 1
 123.235351562 265 l 2
 104.235351562 254 85.2353515625 254 68.2353515625 265 c 0
 51.2353515625 276 53.2353515625 289 76.2353515625 301 c 2
 174.235351562 352 l 1
 330.235351562 431 l 1
 330.235351562 447 l 1
 330.235351562 561 l 1
 147.235351562 467 l 1
 126.235351562 453 l 2
 103.235351562 442 84.2353515625 442 68.2353515625 451 c 0
 52.2353515625 460 53.2353515625 472 76.2353515625 485 c 2
 340.235351562 625 l 2
 349.235351562 630 359.235351562 633 365.235351562 633 c 0
 391.235351562 633 402.235351562 624 402.235351562 608 c 2
 402.235351562 45 l 2
 402.235351562 31 391.235351562 24 365.235351562 24 c 0
 341.235351562 24 330.235351562 31 330.235351562 45 c 2
 330.235351562 186 l 1
 123.235351562 75 l 1
EndSplineSet
EndChar

StartChar: u10CE5
Encoding: 95 68837 51
Width: 223
VWidth: 0
Flags: W
VStem: 76 72<24.8823 631.872>
LayerCount: 2
Back
Fore
SplineSet
76 611 m 1
 76 625 88 633 111 633 c 0
 137 633 148 625 148 611 c 2
 148 44 l 2
 148 30 137 24 111 24 c 0
 88 24 76 30 76 44 c 2
 76 611 l 1
EndSplineSet
EndChar

StartChar: u10C97
Encoding: 23 68759 52
Width: 676
VWidth: 0
Flags: W
HStem: 13 79<315.918 366.149> 743 79<317.388 366.149>
VStem: 61 97<311.838 529.292> 526 94<306.91 527.013>
LayerCount: 2
Back
Fore
SplineSet
341 13 m 0
 325 13 311 17 301 24 c 0
 141 155 61 287 61 418 c 0
 61 551 141 682 301 811 c 0
 311 818 325 822 341 822 c 0
 357 822 371 818 383 811 c 0
 541 678 620 547 620 418 c 0
 620 287 541 155 383 24 c 0
 371 17 357 13 341 13 c 0
341 743 m 1
 319 724 302 706 288 690 c 0
 202 600 158 509 158 418 c 0
 158 391 161 368 167 348 c 0
 173 328 177 315 179 310 c 1
 304 432 l 2
 312 443 332 445 363 438 c 0
 394 431 399 420 383 403 c 2
 344 360 l 1
 341 357 l 1
 215 236 l 1
 253 177 296 128 341 92 c 1
 344 92 l 1
 466 202 526 310 526 418 c 0
 526 522 466 630 344 743 c 1
 344 743 343 743 342 743 c 0
 341 743 341 743 341 743 c 1
EndSplineSet
EndChar

StartChar: u10CAE
Encoding: 46 68782 53
Width: 710
VWidth: 0
Flags: W
VStem: 77 93<16.1006 686> 541 92<16.1006 683>
LayerCount: 2
Back
Fore
SplineSet
633 42 m 2
 633 24 618 13 587 13 c 0
 556 13 541 24 541 42 c 2
 541 683 l 1
 398 544 l 2
 369 518 342 518 316 544 c 1
 170 686 l 1
 170 42 l 2
 170 24 154 13 123 13 c 0
 92 13 77 24 77 42 c 2
 77 786 l 2
 77 799 84 809 98 814 c 0
 127 824 149 821 163 804 c 2
 355 611 l 1
 544 800 l 2
 554 811 569 818 587 818 c 0
 618 818 633 808 633 790 c 2
 633 42 l 2
EndSplineSet
EndChar

StartChar: u10C90
Encoding: 16 68752 54
Width: 425
VWidth: 0
Flags: W
VStem: 168.963 96<16.4117 542 671 821.058>
LayerCount: 2
Back
Fore
SplineSet
301.962890625 689 m 1
 328.962890625 700 350.962890625 697 369.962890625 682 c 0
 388.962890625 667 387.962890625 654 365.962890625 645 c 2
 264.962890625 592 l 1
 264.962890625 42 l 2
 264.962890625 24 249.962890625 13 218.962890625 13 c 0
 184.962890625 13 168.962890625 24 168.962890625 42 c 2
 168.962890625 542 l 1
 128.962890625 523 l 2
 101.962890625 507 78.962890625 506 58.962890625 521 c 0
 38.962890625 536 41.962890625 552 68.962890625 566 c 2
 168.962890625 620 l 1
 168.962890625 796 l 2
 168.962890625 815 184.962890625 824 218.962890625 824 c 0
 249.962890625 824 264.962890625 815 264.962890625 796 c 2
 264.962890625 671 l 1
 301.962890625 689 l 1
EndSplineSet
EndChar

StartChar: u10CE8
Encoding: 98 68840 55
Width: 536
VWidth: 0
Flags: W
LayerCount: 2
Back
Fore
SplineSet
478.592773438 53 m 1
 483.592773438 39 475.592773438 29 452.592773438 25 c 0
 429.592773438 20 415.592773438 24 409.592773438 37 c 2
 356.592773438 123 l 1
 302.592773438 37 l 2
 291.592773438 24 275.592773438 20 252.592773438 25 c 0
 229.592773438 29 224.592773438 39 235.592773438 53 c 2
 318.592773438 185 l 1
 267.592773438 265 l 1
 126.592773438 37 l 2
 116.592773438 24 100.592773438 20 77.5927734375 25 c 0
 54.5927734375 29 49.5927734375 39 60.5927734375 53 c 2
 230.592773438 328 l 1
 60.5927734375 603 l 2
 49.5927734375 617 54.5927734375 627 77.5927734375 631 c 0
 100.592773438 635 116.592773438 630 126.592773438 618 c 2
 184.592773438 527 l 1
 237.592773438 618 l 2
 246.592773438 630 262.592773438 635 286.592773438 631 c 0
 310.592773438 627 316.592773438 617 305.592773438 603 c 2
 221.592773438 465 l 1
 267.592773438 390 l 1
 409.592773438 618 l 2
 415.592773438 630 429.592773438 635 453.592773438 631 c 0
 477.592773438 627 485.592773438 617 478.592773438 603 c 2
 308.592773438 328 l 1
 478.592773438 53 l 1
EndSplineSet
EndChar

StartChar: u10CCF
Encoding: 73 68815 56
Width: 542
VWidth: 0
Flags: W
HStem: 323 10<62.2803 64.2803 482.28 482.28>
LayerCount: 2
Back
Fore
SplineSet
461.280273438 66 m 1
 479.280273438 61 488.280273438 47 480.280273438 36 c 0
 472.280273438 25 449.280273438 21 431.280273438 26 c 0
 371.280273438 43 318.280273438 66 272.280273438 96 c 1
 226.280273438 66 173.280273438 43 113.280273438 26 c 0
 95.2802734375 21 73.2802734375 25 65.2802734375 36 c 0
 57.2802734375 47 64.2802734375 61 82.2802734375 66 c 0
 135.280273438 81 183.280273438 102 225.280273438 130 c 1
 221.280273438 134 215.280273438 137 211.280273438 141 c 0
 152.280273438 191 105.280273438 253 64.2802734375 321 c 1
 63.2802734375 321 l 1
 63.2802734375 322 l 1
 63.2802734375 323 l 2
 62.2802734375 323 l 1
 62.2802734375 324 l 1
 62.2802734375 325 l 1
 62.2802734375 326 l 2
 62.2802734375 327 l 2
 62.2802734375 328 l 2
 62.2802734375 329 l 1
 62.2802734375 330 l 0
 62.2802734375 331 l 2
 62.2802734375 332 l 2
 62.2802734375 333 l 1
 63.2802734375 333 l 1
 63.2802734375 334 l 1
 63.2802734375 335 l 1
 64.2802734375 335 l 1
 105.280273438 403 152.280273438 464 211.280273438 514 c 0
 215.280273438 518 221.280273438 521 225.280273438 525 c 1
 183.280273438 553 135.280273438 575 82.2802734375 590 c 0
 64.2802734375 595 57.2802734375 609 65.2802734375 620 c 0
 73.2802734375 631 95.2802734375 635 113.280273438 630 c 0
 173.280273438 613 226.280273438 589 272.280273438 559 c 1
 318.280273438 589 371.280273438 613 431.280273438 630 c 0
 449.280273438 635 472.280273438 631 480.280273438 620 c 0
 488.280273438 609 479.280273438 595 461.280273438 590 c 0
 408.280273438 575 362.280273438 553 320.280273438 525 c 1
 324.280273438 521 329.280273438 518 333.280273438 514 c 0
 392.280273438 464 440.280273438 403 481.280273438 335 c 2
 481.280273438 334 l 1
 482.280273438 334 l 1
 482.280273438 333 l 1
 482.280273438 332 l 1
 483.280273438 331 l 2
 483.280273438 330 l 1
 483.280273438 329 l 0
 483.280273438 328 l 2
 483.280273438 327 l 2
 483.280273438 326 l 0
 483.280273438 325 l 2
 483.280273438 324 l 1
 482.280273438 324 l 1
 482.280273438 323 l 1
 482.280273438 322 l 2
 481.280273438 321 l 1
 481.280273438 319 l 2
 440.280273438 251 392.280273438 191 333.280273438 141 c 0
 329.280273438 137 324.280273438 134 320.280273438 130 c 1
 362.280273438 102 408.280273438 81 461.280273438 66 c 1
62.2802734375 330 m 0
 62.2802734375 330 l 0
137.280273438 328 m 1
 175.280273438 267 218.280273438 212 270.280273438 167 c 2
 272.280273438 166 l 1
 274.280273438 167 l 2
 326.280273438 212 370.280273438 267 408.280273438 328 c 1
 370.280273438 389 326.280273438 443 274.280273438 488 c 0
 273.280273438 488 273.280273438 489 272.280273438 489 c 2
 270.280273438 488 l 2
 218.280273438 443 175.280273438 389 137.280273438 328 c 1
483.280273438 330 m 0
 483.280273438 330 l 0
EndSplineSet
EndChar

StartChar: u10C94
Encoding: 20 68756 57
Width: 661
VWidth: 0
Flags: W
VStem: 281.484 97<147 688>
LayerCount: 2
Back
Fore
SplineSet
286.484375 806 m 2
 294.484375 815 312.484375 822 330.484375 822 c 0
 357.484375 822 378.484375 809 378.484375 793 c 2
 378.484375 147 l 1
 524.484375 293 l 2
 538.484375 307 567.484375 311 590.484375 303 c 0
 613.484375 295 620.484375 276 606.484375 262 c 2
 373.484375 30 l 2
 365.484375 21 348.484375 13 330.484375 13 c 0
 303.484375 13 281.484375 27 281.484375 43 c 2
 281.484375 688 l 1
 135.484375 543 l 2
 121.484375 529 92.484375 524 69.484375 532 c 0
 46.484375 540 40.484375 559 54.484375 573 c 2
 286.484375 806 l 2
EndSplineSet
EndChar

StartChar: u10C8D
Encoding: 13 68749 58
Width: 662
VWidth: 0
Flags: W
VStem: 53.9912 93<17.2712 62.8073>
LayerCount: 2
Back
Fore
SplineSet
146.991210938 40 m 2
 142.991210938 20 124.991210938 11 93.9912109375 14 c 0
 62.9912109375 17 48.9912109375 29 53.9912109375 51 c 2
 283.991210938 796 l 2
 290.991210938 813 306.991210938 822 332.991210938 822 c 0
 359.991210938 822 374.991210938 813 379.991210938 796 c 2
 472.991210938 492 l 1
 472.991210938 492 472.991210938 490 472.991210938 489 c 0
 472.991210938 488 472.991210938 487 472.991210938 487 c 1
 608.991210938 51 l 2
 611.991210938 29 597.991210938 17 566.991210938 14 c 0
 534.991210938 11 518.991210938 20 516.991210938 40 c 1
 426.991210938 327 l 1
 337.991210938 40 l 2
 332.991210938 20 314.991210938 11 283.991210938 14 c 0
 252.991210938 17 239.991210938 29 243.991210938 51 c 2
 376.991210938 484 l 1
 333.991210938 635 l 1
 146.991210938 40 l 2
EndSplineSet
EndChar

StartChar: u10C80
Encoding: 0 68736 59
Width: 697
VWidth: 0
Flags: W
HStem: 298 60<191.808 523.808>
VStem: 523.808 96<16.4117 298 358 690>
LayerCount: 2
Back
Fore
SplineSet
523.807617188 358 m 1
 523.807617188 690 l 1
 191.807617188 358 l 1
 523.807617188 358 l 1
619.807617188 42 m 2
 619.807617188 24 603.807617188 13 569.807617188 13 c 0
 538.807617188 13 523.807617188 24 523.807617188 42 c 2
 523.807617188 298 l 1
 108.807617188 298 l 2
 95.8076171875 298 84.8076171875 300 75.8076171875 302 c 0
 49.8076171875 311 47.8076171875 326 65.8076171875 345 c 2
 526.807617188 804 l 2
 537.807617188 816 553.807617188 822 569.807617188 822 c 0
 603.807617188 822 619.807617188 812 619.807617188 794 c 2
 619.807617188 42 l 2
EndSplineSet
EndChar

StartChar: u10C9A
Encoding: 26 68762 60
Width: 608
VWidth: 0
Flags: W
VStem: 77 97<74 761> 454 97<293.418 542.895>
LayerCount: 2
Back
Fore
SplineSet
77 793 m 1
 77 815 92 824 123 824 c 1
 123 824 124 824 125 824 c 0
 126 824 129 824 131 824 c 0
 251 819 351 777 432 698 c 0
 511 619 551 527 551 419 c 1
 551 308 511 214 432 135 c 0
 351 53 251 13 131 13 c 0
 129 13 126 13 125 13 c 0
 124 13 123 13 123 13 c 1
 92 13 77 24 77 42 c 2
 77 793 l 1
174 74 m 1
 243 84 302 115 350 168 c 0
 420 238 454 321 454 419 c 1
 454 517 420 600 350 667 c 0
 302 717 243 749 174 761 c 1
 174 74 l 1
EndSplineSet
EndChar

StartChar: u10CAB
Encoding: 43 68779 61
Width: 716
VWidth: 0
Flags: W
VStem: 77 95<200 633> 543 96<200 633>
LayerCount: 2
Back
Fore
SplineSet
77 42 m 2
 77 791 l 2
 77 805 87 815 109 819 c 0
 136 826 156 821 170 805 c 2
 356 501 l 1
 546 805 l 2
 556 822 577 827 607 819 c 0
 629 815 639 805 639 791 c 1
 639 42 l 2
 639 24 623 13 589 13 c 0
 565 13 550 21 543 35 c 2
 356 336 l 1
 170 32 l 1
 161 20 146 13 124 13 c 0
 93 13 77 24 77 42 c 2
543 633 m 1
 410 419 l 1
 543 200 l 1
 543 633 l 1
172 200 m 1
 305 419 l 1
 172 633 l 1
 172 200 l 1
EndSplineSet
EndChar

StartChar: u10CED
Encoding: 103 68845 62
Width: 560
VWidth: 0
Flags: W
HStem: 305 43<141 419>
VStem: 69 72<348 631.707> 419 72<24.8823 305>
LayerCount: 2
Back
Fore
SplineSet
69 611 m 0
 69 625 82 633 107 633 c 0
 131 633 141 625 141 611 c 2
 141 552 l 1
 141 348 l 1
 268 348 l 1
 456 348 l 2
 480 348 491 341 491 327 c 1
 491 44 l 2
 491 30 480 24 456 24 c 0
 431 24 419 30 419 44 c 2
 419 103 l 1
 419 305 l 1
 295 305 l 1
 103 305 l 2
 79 305 69 313 69 327 c 2
 69 611 l 0
EndSplineSet
EndChar

StartChar: u10CDE
Encoding: 88 68830 63
Width: 520
VWidth: 0
Flags: W
LayerCount: 2
Back
Fore
SplineSet
62.3330078125 597 m 0
 50.3330078125 607 54.3330078125 621 70.3330078125 628 c 0
 86.3330078125 635 108.333007812 634 120.333007812 624 c 0
 212.333007812 548 268.333007812 472 290.333007812 396 c 1
 398.333007812 504 l 2
 408.333007812 514 430.333007812 517 447.333007812 511 c 0
 464.333007812 505 469.333007812 491 459.333007812 481 c 2
 306.333007812 328 l 1
 467.333007812 166 l 2
 477.333007812 156 472.333007812 142 455.333007812 136 c 0
 438.333007812 130 416.333007812 133 406.333007812 143 c 2
 290.333007812 259 l 1
 268.333007812 183 212.333007812 107 120.333007812 32 c 0
 108.333007812 23 85.3330078125 21 69.3330078125 28 c 0
 53.3330078125 35 50.3330078125 49 62.3330078125 58 c 0
 173.333007812 147 228.333007812 238 228.333007812 327 c 0
 228.333007812 416 173.333007812 506 62.3330078125 597 c 0
EndSplineSet
EndChar

StartChar: u10C8C
Encoding: 12 68748 64
Width: 671
VWidth: 0
Flags: W
VStem: 61 97<304.149 531.309> 520 95<302.394 527.625>
LayerCount: 2
Back
Fore
SplineSet
288 418 m 1
 196 566 l 1
 170 516 158 466 158 416 c 0
 158 367 170 317 196 268 c 1
 288 418 l 1
430 187 m 1
 339 335 l 1
 248 187 l 1
 273 155 303 124 339 92 c 1
 375 124 404 155 430 187 c 1
390 418 m 1
 482 268 l 1
 508 317 520 367 520 416 c 0
 520 466 507 515 481 565 c 1
 390 418 l 1
248 647 m 1
 339 501 l 1
 429 646 l 1
 404 678 374 710 339 742 c 1
 304 710 273 679 248 647 c 1
299 810 m 1
 300 811 302 812 304 813 c 2
 305 814 l 1
 308 816 313 818 317 819 c 0
 324 821 331 822 338 822 c 2
 339 822 l 1
 346 822 353 821 360 819 c 0
 364 818 369 816 372 814 c 2
 373 814 l 1
 373 813 l 1
 375 812 377 811 378 810 c 0
 435 763 482 715 519 668 c 0
 524 664 527 659 528 654 c 0
 586 574 615 496 615 416 c 0
 615 335 585 254 525 174 c 1
 487 124 438 75 378 26 c 0
 376 25 375 23 373 22 c 2
 372 22 l 1
 369 20 366 17 362 16 c 2
 360 16 l 1
 359 16 l 1
 358 15 l 1
 352 13 346 13 339 13 c 0
 332 13 325 13 319 15 c 2
 317 16 l 1
 316 16 l 2
 312 17 308 20 305 22 c 2
 304 22 l 1
 304 23 l 1
 302 24 301 25 300 26 c 0
 141 155 61 285 61 416 c 0
 61 496 91 575 149 655 c 0
 150 659 154 664 158 667 c 0
 195 715 242 762 299 810 c 1
EndSplineSet
EndChar

StartChar: u10CA2
Encoding: 34 68770 65
Width: 720
VWidth: 0
Flags: W
VStem: 77 97<16.4117 283 362 823.31> 546 97<19.1947 477 557 823.31>
LayerCount: 2
Back
Fore
SplineSet
546 477 m 1
 174 283 l 1
 174 42 l 2
 174 24 158 13 127 13 c 0
 93 13 77 24 77 42 c 2
 77 799 l 2
 77 818 93 826 127 826 c 0
 158 826 174 818 174 799 c 2
 174 362 l 1
 546 557 l 1
 546 799 l 2
 546 818 562 826 596 826 c 0
 627 826 643 818 643 799 c 2
 643 45 l 2
 643 26 627 16 596 16 c 0
 562 16 546 26 546 45 c 2
 546 477 l 1
EndSplineSet
EndChar

StartChar: u10CD4
Encoding: 78 68820 66
Width: 524
VWidth: 0
Flags: W
VStem: 227.853 73<125 531>
LayerCount: 2
Back
Fore
SplineSet
232.852539062 621 m 2
 238.852539062 628 249.852539062 633 263.852539062 633 c 0
 283.852539062 633 300.852539062 622 300.852539062 610 c 2
 300.852539062 125 l 1
 410.852539062 233 l 2
 420.852539062 243 443.852539062 248 460.852539062 242 c 0
 477.852539062 236 481.852539062 221 471.852539062 211 c 2
 296.852539062 35 l 2
 290.852539062 28 277.852539062 24 263.852539062 24 c 0
 243.852539062 24 227.852539062 33 227.852539062 45 c 2
 227.852539062 531 l 1
 118.852539062 422 l 2
 108.852539062 412 85.8525390625 409 68.8525390625 415 c 0
 51.8525390625 421 45.8525390625 434 55.8525390625 444 c 2
 232.852539062 621 l 2
EndSplineSet
EndChar

StartChar: u10CC6
Encoding: 64 68806 67
Width: 575
VWidth: 0
Flags: W
VStem: 76 74<94 415 472 631.375> 430 70<24.8665 186 247 562>
LayerCount: 2
Back
Fore
SplineSet
76 610 m 1
 76 624 89 633 115 633 c 0
 139 633 150 624 150 610 c 2
 150 572 l 1
 150 472 l 1
 441 628 l 2
 448 631 456 633 465 633 c 0
 489 633 500 624 500 610 c 2
 500 45 l 2
 500 31 489 24 465 24 c 0
 441 24 430 31 430 45 c 2
 430 186 l 1
 139 29 l 1
 128 25 120 24 115 24 c 0
 89 24 76 31 76 45 c 2
 76 610 l 1
150 415 m 1
 150 94 l 1
 430 247 l 1
 430 562 l 1
 150 415 l 1
EndSplineSet
EndChar

StartChar: u10C93
Encoding: 19 68755 68
Width: 668
VWidth: 0
Flags: W
LayerCount: 2
Back
Fore
SplineSet
335.75 712 m 1
 150.75 419 l 1
 335.75 126 l 1
 518.75 419 l 1
 335.75 712 l 1
56.75 430 m 2
 292.75 805 l 1
 301.75 816 317.75 822 337.75 822 c 0
 359.75 822 373.75 816 382.75 805 c 2
 616.75 430 l 1
 618.75 422 618.75 415 616.75 408 c 2
 382.75 35 l 1
 373.75 21 357.75 13 334.75 13 c 0
 311.75 13 298.75 21 292.75 35 c 2
 56.75 408 l 2
 51.75 417 51.75 425 56.75 430 c 2
EndSplineSet
EndChar

StartChar: u10CEE
Encoding: 104 68846 69
Width: 570
VWidth: 0
Flags: W
VStem: 76 69<24.7594 530> 425 70<24.7594 527>
LayerCount: 2
Back
Fore
SplineSet
495 44 m 1
 495 30 484 24 460 24 c 0
 436 24 425 30 425 44 c 2
 425 527 l 1
 317 423 l 2
 295 404 275 404 256 423 c 1
 145 530 l 1
 145 44 l 2
 145 30 135 24 111 24 c 0
 87 24 76 30 76 44 c 2
 76 605 l 2
 76 615 82 623 92 627 c 0
 114 634 130 631 140 618 c 2
 286 473 l 1
 427 615 l 2
 435 623 447 629 460 629 c 0
 484 629 495 622 495 608 c 2
 495 44 l 1
EndSplineSet
EndChar

StartChar: u10CDF
Encoding: 89 68831 70
Width: 645
VWidth: 0
Flags: W
LayerCount: 2
Back
Fore
SplineSet
246.247070312 33 m 2
 245.247070312 32 243.247070312 31 242.247070312 30 c 1
 241.247070312 30 l 2
 238.247070312 29 236.247070312 27 233.247070312 26 c 2
 232.247070312 26 l 1
 232.247070312 25 l 2
 227.247070312 24 221.247070312 24 216.247070312 24 c 0
 211.247070312 24 206.247070312 24 201.247070312 25 c 2
 201.247070312 26 l 1
 200.247070312 26 l 1
 197.247070312 27 194.247070312 28 191.247070312 30 c 0
 190.247070312 31 189.247070312 31 188.247070312 32 c 2
 179.247070312 39 169.247070312 46 162.247070312 53 c 0
 155.247070312 60 147.247070312 68 140.247070312 75 c 0
 102.247070312 112 73.2470703125 147 51.2470703125 184 c 0
 44.2470703125 195 54.2470703125 208 72.2470703125 212 c 0
 90.2470703125 216 111.247070312 210 118.247070312 199 c 0
 137.247070312 165 166.247070312 132 201.247070312 98 c 0
 206.247070312 93 210.247070312 88 216.247070312 83 c 1
 307.247070312 164 353.247070312 246 353.247070312 327 c 0
 353.247070312 416 299.247070312 506 188.247070312 597 c 0
 176.247070312 607 179.247070312 621 195.247070312 628 c 0
 211.247070312 635 233.247070312 634 245.247070312 624 c 0
 337.247070312 548 393.247070312 472 415.247070312 396 c 1
 523.247070312 504 l 2
 533.247070312 514 556.247070312 517 573.247070312 511 c 0
 590.247070312 505 594.247070312 491 584.247070312 481 c 2
 431.247070312 328 l 1
 593.247070312 166 l 2
 603.247070312 156 598.247070312 142 581.247070312 136 c 0
 564.247070312 130 541.247070312 133 531.247070312 143 c 2
 416.247070312 259 l 1
 394.247070312 183 337.247070312 107 245.247070312 32 c 2
 246.247070312 33 l 2
EndSplineSet
EndChar

StartChar: u10CC9
Encoding: 67 68809 71
Width: 475
VWidth: 0
Flags: W
HStem: 24 43<57.0081 188.409> 586 46<57.0323 191.536>
VStem: 338 73<220.932 433.247>
LayerCount: 2
Back
Fore
SplineSet
344 621 m 1
 356 633 373 636 393 628 c 0
 413 620 418 609 406 597 c 2
 333 527 l 1
 385 468 411 402 411 327 c 1
 411 252 385 185 333 128 c 1
 406 58 l 2
 416 46 410 36 390 28 c 0
 370 20 354 23 344 35 c 2
 290 88 l 1
 233 45 167 24 92 24 c 1
 68 24 57 31 57 45 c 0
 57 59 68 67 92 67 c 1
 149 67 202 87 250 128 c 1
 172 206 l 2
 158 218 161 229 180 236 c 0
 199 243 217 240 233 230 c 2
 290 174 l 1
 322 220 338 272 338 327 c 1
 338 382 322 434 290 482 c 1
 242 433 l 2
 228 419 209 416 189 424 c 0
 169 432 166 444 180 458 c 2
 250 527 l 1
 204 566 152 586 95 586 c 2
 92 586 l 1
 68 586 57 594 57 610 c 0
 57 624 68 632 92 632 c 1
 167 632 233 610 290 567 c 1
 344 621 l 1
EndSplineSet
EndChar

StartChar: u10CD8
Encoding: 82 68824 72
Width: 446
VWidth: 0
Flags: W
VStem: 299.5 72<99 276 379 556>
LayerCount: 2
Back
Fore
SplineSet
299.5 276 m 1
 142.5 190 l 1
 299.5 99 l 1
 299.5 276 l 1
307.5 32 m 2
 64.5 174 l 1
 46.5 185 46.5 196 64.5 206 c 2
 282.5 328 l 1
 69.5 455 l 1
 69.5 455 69.5 455 68.5 455 c 0
 67.5 455 66.5 455 66.5 455 c 1
 48.5 464 50.5 473 69.5 484 c 2
 304.5 625 l 2
 310.5 630 320.5 633 333.5 633 c 0
 358.5 633 371.5 625 371.5 611 c 2
 371.5 44 l 2
 371.5 30 358.5 24 333.5 24 c 0
 324.5 24 315.5 27 307.5 32 c 2
299.5 556 m 1
 145.5 468 l 1
 299.5 379 l 1
 299.5 556 l 1
EndSplineSet
EndChar

StartChar: u10C8A
Encoding: 10 68746 73
Width: 591
VWidth: 0
Flags: W
HStem: 14 57<57.9464 217.026> 761 60<58.6809 223.348>
VStem: 431 96<289.517 543.901>
LayerCount: 2
Back
Fore
SplineSet
438 807 m 0
 454 823 477 826 504 816 c 0
 531 806 536 791 520 775 c 2
 424 683 l 1
 493 604 527 515 527 416 c 1
 527 317 493 230 424 154 c 1
 520 60 l 2
 533 44 527 29 500 19 c 0
 472 9 452 13 438 29 c 2
 367 99 l 1
 291 42 203 14 104 14 c 1
 73 14 57 25 57 43 c 0
 57 62 73 71 104 71 c 1
 180 71 251 97 313 154 c 0
 332 172 351 191 367 213 c 0
 412 273 431 342 431 416 c 1
 431 490 412 561 367 623 c 0
 352 645 332 665 313 683 c 0
 254 737 184 761 108 761 c 2
 104 761 l 1
 73 761 57 772 57 794 c 0
 57 812 73 821 104 821 c 1
 203 821 291 793 367 736 c 1
 438 807 l 0
EndSplineSet
EndChar

StartChar: u10C9E
Encoding: 30 68766 74
Width: 657
VWidth: 0
Flags: W
LayerCount: 2
Back
Fore
SplineSet
63.6826171875 776 m 0
 48.6826171875 789 51.6826171875 807 73.6826171875 816 c 0
 95.6826171875 825 125.682617188 824 140.682617188 811 c 0
 262.682617188 711 336.682617188 609 365.682617188 509 c 1
 508.682617188 651 l 2
 521.682617188 664 551.682617188 670 574.682617188 662 c 0
 597.682617188 654 603.682617188 635 590.682617188 622 c 2
 387.682617188 418 l 1
 602.682617188 203 l 2
 615.682617188 190 608.682617188 171 585.682617188 163 c 0
 562.682617188 155 533.682617188 160 520.682617188 173 c 2
 366.682617188 326 l 1
 338.682617188 225 263.682617188 124 140.682617188 25 c 0
 125.682617188 12 94.6826171875 10 72.6826171875 19 c 0
 50.6826171875 28 48.6826171875 46 63.6826171875 59 c 0
 209.682617188 178 282.682617188 297 282.682617188 416 c 0
 282.682617188 535 209.682617188 655 63.6826171875 776 c 0
EndSplineSet
EndChar

StartChar: u10CD2
Encoding: 76 68818 75
Width: 375
VWidth: 0
Flags: W
VStem: 229.743 70<24.7594 562>
LayerCount: 2
Back
Fore
SplineSet
229.743164062 562 m 1
 111.743164062 501 l 2
 93.7431640625 490 75.7431640625 491 58.7431640625 502 c 0
 41.7431640625 514 42.7431640625 525 64.7431640625 536 c 2
 237.743164062 628 l 2
 248.743164062 631 257.743164062 633 264.743164062 633 c 0
 288.743164062 633 299.743164062 625 299.743164062 611 c 2
 299.743164062 44 l 2
 299.743164062 30 288.743164062 24 264.743164062 24 c 0
 240.743164062 24 229.743164062 30 229.743164062 44 c 2
 229.743164062 562 l 1
EndSplineSet
EndChar

StartChar: u10C99
Encoding: 25 68761 76
Width: 587
VWidth: 0
Flags: W
HStem: 13 61<59.5066 221.346> 767 57<59.0085 207.384>
VStem: 436 94<292.38 544.77>
LayerCount: 2
Back
Fore
SplineSet
109 767 m 1
 75 767 58 778 58 796 c 0
 58 815 75 824 109 824 c 1
 231 824 334 782 416 698 c 0
 493 621 530 528 530 417 c 1
 530 304 493 211 416 139 c 0
 331 55 229 13 109 13 c 1
 75 13 58 23 58 42 c 0
 58 64 75 74 109 74 c 1
 191 74 265 106 333 168 c 0
 403 238 436 322 436 417 c 1
 436 515 403 600 333 670 c 1
 265 729 191 762 109 767 c 1
EndSplineSet
EndChar

StartChar: u10C9C
Encoding: 28 68764 77
Width: 614
VWidth: 0
Flags: W
VStem: 460.514 97<301.843 524.516>
LayerCount: 2
Back
Fore
SplineSet
261.513671875 721 m 2
 220.513671875 682 183.513671875 638 150.513671875 588 c 0
 140.513671875 566 120.513671875 558 89.513671875 564 c 0
 58.513671875 570 49.513671875 584 61.513671875 606 c 0
 85.513671875 648 109.513671875 683 137.513671875 711 c 0
 165.513671875 739 202.513671875 772 252.513671875 813 c 0
 274.513671875 826 295.513671875 825 317.513671875 809 c 0
 477.513671875 676 557.513671875 544 557.513671875 413 c 0
 557.513671875 280 477.513671875 150 317.513671875 24 c 0
 310.513671875 17 297.513671875 13 278.513671875 13 c 0
 262.513671875 13 248.513671875 17 239.513671875 24 c 1
 175.513671875 81 l 2
 125.513671875 123 86.513671875 172 57.513671875 227 c 0
 50.513671875 234 51.513671875 243 61.513671875 252 c 2
 239.513671875 431 l 2
 253.513671875 445 276.513671875 448 307.513671875 441 c 0
 335.513671875 430 339.513671875 416 321.513671875 402 c 2
 153.513671875 230 l 1
 172.513671875 197 207.513671875 158 257.513671875 110 c 1
 281.513671875 91 l 1
 400.513671875 199 460.513671875 305 460.513671875 413 c 0
 460.513671875 523 400.513671875 629 281.513671875 737 c 1
 261.513671875 721 l 2
EndSplineSet
EndChar

StartChar: u10CCB
Encoding: 69 68811 78
Width: 357
VWidth: 0
Flags: W
VStem: 230 73<245.624 409.717>
LayerCount: 2
Back
Fore
SplineSet
88 483 m 2
 68 483 52 494 52 506 c 0
 52 511 54 514 58 518 c 2
 162 622 l 2
 172 632 195 635 212 629 c 0
 229 623 234 609 224 599 c 2
 146 520 l 1
 185 510 219 492 246 465 c 0
 282 429 303 381 303 328 c 1
 303 275 282 226 246 190 c 0
 219 163 185 145 146 135 c 1
 224 56 l 2
 234 46 229 33 212 27 c 0
 195 21 172 24 162 34 c 2
 58 137 l 2
 54 141 52 145 52 150 c 0
 52 162 68 172 88 172 c 2
 89 172 89 172 90 172 c 0
 125 172 157 187 183 213 c 0
 212 242 230 283 230 328 c 1
 230 373 212 413 183 442 c 0
 157 468 125 483 90 483 c 0
 89 483 89 483 88 483 c 2
EndSplineSet
EndChar

StartChar: u10CEA
Encoding: 100 68842 79
Width: 574
VWidth: 0
Flags: W
VStem: 76 73<124 529> 426 73<124 529>
LayerCount: 2
Back
Fore
SplineSet
426 529 m 1
 310 416 l 2
 294 405 279 405 266 416 c 2
 149 529 l 1
 149 124 l 1
 266 238 l 2
 280 248 296 248 310 238 c 2
 426 124 l 1
 426 529 l 1
76 47 m 2
 76 608 l 2
 76 617 82 625 95 630 c 0
 114 635 131 633 143 623 c 2
 289 476 l 1
 431 620 l 2
 439 628 450 633 463 633 c 0
 487 633 499 625 499 611 c 2
 499 47 l 2
 499 40 493 33 482 28 c 0
 463 21 445 23 431 36 c 2
 289 175 l 1
 143 36 l 2
 135 28 125 24 114 24 c 0
 88 24 76 32 76 47 c 2
EndSplineSet
EndChar

StartChar: u10CFA
Encoding: 115 68858 80
Width: 249
VWidth: 0
Flags: W
VStem: 77 95<7.57273 818.427>
LayerCount: 2
Back
Fore
SplineSet
77 794 m 0
 77 810 99 823 125 823 c 0
 151 823 172 810 172 794 c 2
 172 32 l 2
 172 16 151 3 125 3 c 0
 99 3 77 16 77 32 c 2
 77 794 l 0
EndSplineSet
EndChar

StartChar: u10CFB
Encoding: 116 68859 81
Width: 651
VWidth: 0
Flags: W
LayerCount: 2
Back
Fore
SplineSet
510.872070312 799 m 0
 515.872070312 815 540.872070312 826 566.872070312 823 c 0
 592.872070312 820 609.872070312 805 604.872070312 789 c 2
 371.872070312 37 l 2
 366.872070312 21 342.872070312 10 316.872070312 13 c 0
 296.872070312 15 280.872070312 25 277.872070312 37 c 2
 45.8720703125 789 l 2
 40.8720703125 805 57.8720703125 820 83.8720703125 823 c 0
 109.872070312 826 134.872070312 815 139.872070312 799 c 2
 141.872070312 794 l 1
 324.872070312 199 l 1
 508.872070312 794 l 1
 510.872070312 799 l 0
EndSplineSet
EndChar

StartChar: u10CFC
Encoding: 117 68860 82
Width: 668
VWidth: 0
Flags: W
LayerCount: 2
Back
Fore
SplineSet
521.9765625 804 m 2
 530.9765625 819 557.9765625 827 582.9765625 821 c 0
 607.9765625 815 619.9765625 799 610.9765625 784 c 2
 385.9765625 419 l 1
 610.9765625 54 l 2
 619.9765625 39 607.9765625 23 582.9765625 17 c 0
 557.9765625 11 530.9765625 19 521.9765625 34 c 2
 334.9765625 336 l 1
 147.9765625 34 l 2
 138.9765625 19 110.9765625 11 85.9765625 17 c 0
 60.9765625 23 48.9765625 39 57.9765625 54 c 2
 283.9765625 419 l 1
 57.9765625 784 l 2
 48.9765625 799 60.9765625 815 85.9765625 821 c 0
 110.9765625 827 138.9765625 819 147.9765625 804 c 2
 334.9765625 502 l 1
 521.9765625 804 l 2
EndSplineSet
EndChar

StartChar: u10CFD
Encoding: 118 68861 83
Width: 651
VWidth: 0
Flags: W
VStem: 277.872 95<7.57273 57.1724 349 818.427> 508.872 96<772.28 789 795 813.625>
LayerCount: 2
Back
Fore
SplineSet
277.872070312 794 m 0
 277.872070312 810 298.872070312 823 324.872070312 823 c 0
 350.872070312 823 372.872070312 810 372.872070312 794 c 2
 372.872070312 349 l 1
 508.872070312 789 l 1
 510.872070312 795 l 2
 515.872070312 811 540.872070312 821 566.872070312 818 c 0
 592.872070312 815 609.872070312 800 604.872070312 784 c 2
 372.872070312 34 l 1
 372.872070312 32 l 2
 372.872070312 16 350.872070312 3 324.872070312 3 c 0
 298.872070312 3 277.872070312 16 277.872070312 32 c 2
 277.872070312 34 l 1
 45.8720703125 784 l 2
 40.8720703125 800 57.8720703125 815 83.8720703125 818 c 0
 109.872070312 821 134.872070312 811 139.872070312 795 c 2
 141.872070312 789 l 1
 277.872070312 349 l 1
 277.872070312 794 l 0
EndSplineSet
EndChar

StartChar: u10CFE
Encoding: 119 68862 84
Width: 667
VWidth: 0
Flags: W
VStem: 285.977 96<7.57273 253 573 818.427>
LayerCount: 2
Back
Fore
SplineSet
285.9765625 794 m 0
 285.9765625 810 307.9765625 823 333.9765625 823 c 0
 359.9765625 823 381.9765625 810 381.9765625 794 c 2
 381.9765625 573 l 1
 520.9765625 798 l 2
 529.9765625 813 556.9765625 821 581.9765625 815 c 0
 606.9765625 809 618.9765625 793 609.9765625 778 c 2
 384.9765625 413 l 1
 609.9765625 49 l 2
 618.9765625 34 606.9765625 17 581.9765625 11 c 0
 556.9765625 5 529.9765625 13 520.9765625 28 c 2
 381.9765625 253 l 1
 381.9765625 32 l 2
 381.9765625 16 359.9765625 3 333.9765625 3 c 0
 307.9765625 3 285.9765625 16 285.9765625 32 c 2
 285.9765625 253 l 1
 146.9765625 28 l 2
 137.9765625 13 109.9765625 5 84.9765625 11 c 0
 59.9765625 17 47.9765625 34 56.9765625 49 c 2
 282.9765625 413 l 1
 56.9765625 778 l 2
 47.9765625 793 59.9765625 809 84.9765625 815 c 0
 109.9765625 821 137.9765625 813 146.9765625 798 c 2
 285.9765625 573 l 1
 285.9765625 794 l 0
EndSplineSet
EndChar

StartChar: u10CFF
Encoding: 120 68863 85
Width: 676
VWidth: 0
Flags: W
HStem: 390 58<61.3107 270.109 408.109 616.908>
VStem: 291.109 96<21.5727 259 579 817.133>
LayerCount: 2
Back
Fore
SplineSet
107.109375 390 m 0
 81.109375 390 60.109375 403 60.109375 419 c 0
 60.109375 435 81.109375 448 107.109375 448 c 2
 270.109375 448 l 1
 63.109375 784 l 2
 54.109375 799 65.109375 815 90.109375 821 c 0
 115.109375 827 143.109375 819 152.109375 804 c 2
 291.109375 579 l 1
 291.109375 792 l 2
 291.109375 808 313.109375 822 339.109375 822 c 0
 365.109375 822 387.109375 808 387.109375 792 c 2
 387.109375 579 l 1
 526.109375 804 l 2
 535.109375 819 562.109375 827 587.109375 821 c 0
 612.109375 815 624.109375 799 615.109375 784 c 2
 408.109375 448 l 1
 571.109375 448 l 2
 597.109375 448 618.109375 435 618.109375 419 c 0
 618.109375 403 597.109375 390 571.109375 390 c 2
 408.109375 390 l 1
 615.109375 54 l 2
 624.109375 39 612.109375 23 587.109375 17 c 0
 562.109375 11 535.109375 19 526.109375 34 c 2
 387.109375 259 l 1
 387.109375 46 l 2
 387.109375 30 365.109375 17 339.109375 17 c 0
 313.109375 17 291.109375 30 291.109375 46 c 2
 291.109375 259 l 1
 152.109375 34 l 2
 143.109375 19 115.109375 11 90.109375 17 c 0
 65.109375 23 54.109375 39 63.109375 54 c 2
 270.109375 390 l 1
 107.109375 390 l 0
EndSplineSet
EndChar

StartChar: u10CF2
Encoding: 108 68850 86
Width: 458
VWidth: 0
Flags: W
VStem: 59 60<166.138 341.611> 206 57<82 424> 345 57<165.545 339.48>
LayerCount: 2
Back
Fore
SplineSet
231 502 m 0
 241 502 250 499 257 495 c 0
 354 413 402 332 402 253 c 0
 402 172 354 93 257 12 c 0
 250 8 241 5 231 5 c 0
 221 5 213 8 207 12 c 0
 109 93 59 172 59 253 c 0
 59 335 109 416 207 495 c 0
 213 499 221 502 231 502 c 0
206 429 m 2
 204 426 200 424 198 421 c 0
 145 365 119 309 119 253 c 0
 119 237 119 225 124 211 c 0
 144 159 150 132 206 77 c 1
 206 429 l 2
263 424 m 1
 263 82 l 1
 318 139 345 196 345 253 c 0
 345 308 318 366 263 424 c 1
EndSplineSet
EndChar

StartChar: u10C9D
Encoding: 29 68765 87
Width: 436
VWidth: 0
Flags: W
LayerCount: 2
Back
Fore
SplineSet
163.422851562 777 m 2
 383.422851562 557 l 2
 394.422851562 546 391.422851562 531 373.422851562 513 c 2
 225.422851562 365 l 1
 129.422851562 269 l 1
 285.422851562 113 l 1
 331.422851562 67 l 2
 342.422851562 56 338.422851562 41 319.422851562 22 c 0
 301.422851562 4 286.422851562 0 275.422851562 11 c 2
 57.4228515625 230 l 1
 46.4228515625 241 49.4228515625 256 67.4228515625 274 c 2
 213.422851562 419 l 1
 311.422851562 517 l 1
 153.422851562 675 l 1
 107.422851562 721 l 2
 96.4228515625 732 99.4228515625 747 117.422851562 765 c 0
 136.422851562 784 152.422851562 788 163.422851562 777 c 2
EndSplineSet
EndChar

StartChar: u10CC5
Encoding: 63 68805 88
Width: 452
VWidth: 0
Flags: W
VStem: 197.847 61<119 506>
LayerCount: 2
Back
Fore
SplineSet
228.846679688 620 m 2
 242.846679688 620 250.846679688 617 254.846679688 609 c 2
 397.846679688 381 l 2
 404.846679688 369 398.846679688 362 380.846679688 358 c 0
 362.846679688 354 349.846679688 358 342.846679688 368 c 2
 257.846679688 506 l 1
 257.846679688 490 l 2
 258.846679688 488 258.846679688 487 258.846679688 485 c 2
 258.846679688 250 l 1
 258.846679688 119 l 1
 343.846679688 257 l 2
 349.846679688 267 361.846679688 271 379.846679688 267 c 0
 397.846679688 263 404.846679688 256 398.846679688 244 c 2
 255.846679688 16 l 2
 250.846679688 8 241.846679688 5 227.846679688 5 c 0
 213.846679688 5 205.846679688 8 201.846679688 16 c 2
 58.8466796875 244 l 2
 51.8466796875 256 57.8466796875 263 75.8466796875 267 c 0
 93.8466796875 271 106.846679688 267 113.846679688 257 c 2
 199.846679688 119 l 1
 199.846679688 134 l 2
 198.846679688 136 197.846679688 138 197.846679688 140 c 2
 197.846679688 375 l 1
 197.846679688 506 l 1
 112.846679688 368 l 2
 106.846679688 358 94.8466796875 354 76.8466796875 358 c 0
 58.8466796875 362 52.8466796875 369 58.8466796875 381 c 2
 200.846679688 609 l 2
 205.846679688 617 214.846679688 620 228.846679688 620 c 2
EndSplineSet
EndChar

StartChar: u10CD5
Encoding: 79 68821 89
Width: 522
VWidth: 0
Flags: W
LayerCount: 2
Back
Fore
SplineSet
121.192382812 610 m 2
 122.192382812 610 l 0
 123.192382812 610 124.192382812 610 125.192382812 610 c 0
 126.192382812 610 126.192382812 610 127.192382812 610 c 0
 135.192382812 608 143.192382812 605 148.192382812 597 c 0
 149.192382812 596 l 1
 149.192382812 596 156.192382812 584 249.192382812 398 c 2
 262.192382812 372 l 1
 277.192382812 402 l 2
 367.192382812 581 375.192382812 596 375.192382812 596 c 1
 376.192382812 597 l 0
 381.192382812 604 390.192382812 607 397.192382812 610 c 0
 398.192382812 610 399.192382812 610 400.192382812 610 c 0
 401.192382812 610 401.192382812 610 402.192382812 610 c 0
 403.192382812 610 406.192382812 610 407.192382812 610 c 0
 410.192382812 610 411.192382812 609 414.192382812 609 c 0
 415.192382812 609 415.192382812 609 416.192382812 609 c 0
 417.192382812 608 l 0
 420.192382812 607 422.192382812 607 424.192382812 605 c 0
 429.192382812 601 433.192382812 594 437.192382812 588 c 0
 446.192382812 572 455.192382812 553 461.192382812 537 c 0
 478.192382812 493 448.192382812 455 434.192382812 472 c 0
 420.192382812 488 408.192382812 510 404.192382812 518 c 1
 319.192382812 353 l 1
 296.192382812 308 l 1
 318.192382812 266 l 1
 404.192382812 98 l 1
 408.192382812 106 420.192382812 128 434.192382812 144 c 0
 448.192382812 161 478.192382812 124 461.192382812 80 c 0
 455.192382812 64 446.192382812 44 437.192382812 28 c 0
 433.192382812 22 429.192382812 15 424.192382812 11 c 0
 422.192382812 9 419.192382812 9 416.192382812 8 c 0
 415.192382812 8 415.192382812 7 414.192382812 7 c 0
 412.192382812 7 410.192382812 7 408.192382812 7 c 0
 406.192382812 7 404.192382812 6 402.192382812 6 c 0
 400.192382812 6 397.192382812 6 395.192382812 7 c 0
 388.192382812 10 381.192382812 12 376.192382812 19 c 0
 375.192382812 20 l 1
 375.192382812 20 368.192382812 33 275.192382812 218 c 2
 262.192382812 244 l 1
 247.192382812 215 l 2
 157.192382812 35 149.192382812 20 149.192382812 20 c 1
 148.192382812 19 l 0
 143.192382812 12 136.192382812 10 129.192382812 7 c 0
 128.192382812 7 128.192382812 6 127.192382812 6 c 0
 125.192382812 6 124.192382812 6 122.192382812 6 c 0
 120.192382812 6 117.192382812 7 115.192382812 7 c 0
 113.192382812 7 113.192382812 7 111.192382812 7 c 0
 110.192382812 7 110.192382812 8 109.192382812 8 c 0
 108.192382812 8 l 0
 105.192382812 9 102.192382812 9 100.192382812 11 c 0
 95.1923828125 15 91.1923828125 22 87.1923828125 28 c 0
 78.1923828125 44 70.1923828125 64 64.1923828125 80 c 0
 47.1923828125 124 76.1923828125 161 90.1923828125 144 c 0
 104.192382812 128 117.192382812 106 121.192382812 98 c 1
 206.192382812 265 l 1
 228.192382812 308 l 1
 205.192382812 352 l 1
 121.192382812 518 l 1
 117.192382812 510 104.192382812 488 90.1923828125 472 c 0
 76.1923828125 455 47.1923828125 493 64.1923828125 537 c 0
 70.1923828125 553 78.1923828125 572 87.1923828125 588 c 0
 91.1923828125 594 95.1923828125 602 100.192382812 606 c 0
 102.192382812 608 105.192382812 607 108.192382812 608 c 0
 109.192382812 609 l 0
 110.192382812 609 109.192382812 609 110.192382812 609 c 0
 112.192382812 609 115.192382812 610 117.192382812 610 c 0
 118.192382812 610 120.192382812 610 121.192382812 610 c 2
EndSplineSet
EndChar

StartChar: u10C85
Encoding: 5 68741 90
Width: 573
VWidth: 0
Flags: W
VStem: 247.984 81<158 678>
LayerCount: 2
Back
Fore
SplineSet
288.984375 831 m 2
 306.984375 831 318.984375 826 323.984375 816 c 2
 515.984375 510 l 2
 524.984375 494 517.984375 484 493.984375 479 c 0
 468.984375 474 451.984375 478 441.984375 492 c 2
 327.984375 678 l 1
 327.984375 657 l 2
 328.984375 655 328.984375 652 328.984375 649 c 2
 328.984375 334 l 1
 328.984375 158 l 1
 443.984375 343 l 2
 451.984375 357 466.984375 362 491.984375 357 c 0
 516.984375 352 524.984375 342 516.984375 326 c 2
 325.984375 20 l 2
 318.984375 10 305.984375 5 287.984375 5 c 0
 269.984375 5 257.984375 10 252.984375 20 c 2
 60.984375 326 l 2
 51.984375 342 59.984375 352 83.984375 357 c 0
 108.984375 362 124.984375 357 134.984375 343 c 2
 249.984375 158 l 1
 249.984375 179 l 2
 248.984375 181 247.984375 183 247.984375 186 c 2
 247.984375 502 l 1
 247.984375 678 l 1
 132.984375 492 l 2
 124.984375 478 109.984375 474 84.984375 479 c 0
 59.984375 484 51.984375 494 59.984375 510 c 2
 250.984375 816 l 2
 257.984375 826 270.984375 831 288.984375 831 c 2
EndSplineSet
EndChar

StartChar: u10CDD
Encoding: 87 68829 91
Width: 349
VWidth: 0
Flags: W
LayerCount: 2
Back
Fore
SplineSet
131.678710938 580 m 2
 295.678710938 416 l 2
 303.678710938 408 301.678710938 396 288.678710938 383 c 2
 177.678710938 273 l 1
 106.678710938 202 l 1
 222.678710938 85 l 1
 256.678710938 51 l 2
 264.678710938 43 261.678710938 31 247.678710938 17 c 0
 233.678710938 3 223.678710938 2 215.678710938 10 c 2
 52.6787109375 172 l 1
 44.6787109375 180 46.6787109375 191 60.6787109375 205 c 2
 168.678710938 313 l 1
 241.678710938 386 l 1
 123.678710938 504 l 1
 89.6787109375 538 l 2
 81.6787109375 546 83.6787109375 557 97.6787109375 571 c 0
 111.678710938 585 123.678710938 588 131.678710938 580 c 2
EndSplineSet
EndChar

StartChar: uni10CEE_uni200D_uni10CEE
Encoding: 112 -1 92
Width: 495
VWidth: 0
Flags: W
VStem: 75 60<5.53174 191 259 423> 364 58<5.28125 188 259 420>
LayerCount: 2
Back
Fore
SplineSet
422 23 m 2
 422 11 412 5 393 5 c 0
 374 5 364 11 364 23 c 1
 364 188 l 1
 276 100 l 2
 258 85 241 85 225 100 c 1
 135 191 l 1
 135 23 l 1
 135 11 124 5 103 5 c 0
 84 5 75 11 75 23 c 2
 75 487 l 1
 75 492 79 497 88 502 c 0
 106 506 120 504 130 495 c 2
 249 376 l 1
 366 493 l 2
 372 500 381 504 393 504 c 0
 412 504 422 499 422 487 c 2
 422 23 l 2
364 259 m 1
 364 420 l 1
 276 332 l 2
 259 315 241 315 225 332 c 1
 135 423 l 1
 135 259 l 1
 170 226 l 1
 249 144 l 1
 329 223 l 1
 364 259 l 1
EndSplineSet
Ligature2: "OLD_HUNGARIAN_LIGATURES" u10CEE u200D u10CEE
EndChar

StartChar: u10CE1
Encoding: 91 68833 93
Width: 628
VWidth: 0
Flags: W
VStem: 136.521 69<310.238 366.977> 425.521 69<310.238 366.977>
LayerCount: 2
Back
Fore
SplineSet
309.521484375 680 m 2
 311.521484375 680 313.521484375 680 315.521484375 680 c 0
 317.521484375 680 318.521484375 680 320.521484375 680 c 2
 321.521484375 680 l 2
 331.521484375 680 339.521484375 677 345.521484375 671 c 0
 397.521484375 615 436.521484375 558 461.521484375 501 c 0
 466.521484375 496 470.521484375 490 475.521484375 485 c 0
 498.521484375 460 540.521484375 400 540.521484375 400 c 2
 549.521484375 389 544.521484375 374 530.521484375 367 c 0
 518.521484375 361 503.521484375 362 493.521484375 370 c 1
 494.521484375 362 494.521484375 355 494.521484375 347 c 0
 494.521484375 342 493.521484375 338 493.521484375 333 c 0
 499.521484375 327 506.521484375 321 512.521484375 314 c 0
 535.521484375 289 576.521484375 228 576.521484375 228 c 2
 585.521484375 217 580.521484375 202 566.521484375 195 c 0
 552.521484375 188 534.521484375 192 525.521484375 203 c 2
 483.521484375 259 l 1
 474.521484375 223 460.521484375 188 440.521484375 152 c 1
 443.521484375 148 447.521484375 145 450.521484375 141 c 0
 473.521484375 116 514.521484375 56 514.521484375 56 c 2
 523.521484375 45 518.521484375 29 504.521484375 22 c 0
 490.521484375 15 472.521484375 19 463.521484375 30 c 2
 409.521484375 102 l 1
 391.521484375 76 369.521484375 49 345.521484375 23 c 0
 339.521484375 17 330.521484375 14 320.521484375 14 c 0
 318.521484375 14 317.521484375 14 315.521484375 14 c 0
 313.521484375 14 311.521484375 14 309.521484375 14 c 0
 299.521484375 14 291.521484375 17 285.521484375 23 c 0
 261.521484375 49 239.521484375 76 221.521484375 102 c 1
 167.521484375 30 l 2
 158.521484375 19 140.521484375 15 126.521484375 22 c 0
 112.521484375 29 107.521484375 45 116.521484375 56 c 2
 116.521484375 56 157.521484375 116 180.521484375 141 c 0
 183.521484375 145 187.521484375 148 190.521484375 152 c 1
 170.521484375 188 156.521484375 223 147.521484375 259 c 1
 105.521484375 203 l 2
 96.521484375 192 78.521484375 188 64.521484375 195 c 0
 50.521484375 202 45.521484375 217 54.521484375 228 c 2
 54.521484375 228 95.521484375 289 118.521484375 314 c 0
 124.521484375 321 130.521484375 327 136.521484375 333 c 0
 136.521484375 338 136.521484375 342 136.521484375 347 c 0
 136.521484375 355 136.521484375 362 137.521484375 370 c 1
 127.521484375 362 112.521484375 361 100.521484375 367 c 0
 86.521484375 374 81.521484375 389 90.521484375 400 c 2
 90.521484375 400 132.521484375 460 155.521484375 485 c 0
 160.521484375 490 164.521484375 496 169.521484375 501 c 0
 194.521484375 558 233.521484375 615 285.521484375 671 c 0
 291.521484375 677 299.521484375 680 309.521484375 680 c 2
315.521484375 611 m 1
 242.521484375 520 205.521484375 432 205.521484375 347 c 0
 205.521484375 260 242.521484375 172 315.521484375 83 c 1
 388.521484375 172 425.521484375 260 425.521484375 347 c 0
 425.521484375 432 388.521484375 520 315.521484375 611 c 1
EndSplineSet
EndChar

StartChar: uni10CD3_uni200D_uni10CEE
Encoding: 111 -1 94
Width: 476
VWidth: 0
Flags: W
VStem: 66 57<6.2793 156> 351 60<6.43564 156>
LayerCount: 2
Back
Fore
SplineSet
238 435 m 1
 125 253 l 1
 238 74 l 1
 349 253 l 1
 238 435 l 1
66 253 m 2
 66 257 67 261 68 262 c 2
 210 493 l 1
 216 501 225 505 238 505 c 0
 251 505 260 501 265 493 c 2
 409 262 l 2
 410 261 411 257 411 253 c 2
 411 23 l 2
 411 12 401 6 382 6 c 0
 361 6 351 12 351 23 c 2
 351 156 l 1
 265 17 l 2
 258 9 249 5 236 5 c 0
 223 5 215 9 210 17 c 2
 123 156 l 1
 123 23 l 2
 123 12 113 6 94 6 c 0
 75 6 66 12 66 23 c 2
 66 253 l 2
EndSplineSet
Ligature2: "OLD_HUNGARIAN_LIGATURES" u10CD3 u200D u10CEE
EndChar

StartChar: u10CA3
Encoding: 35 68771 95
Width: 543
VWidth: 0
Flags: W
LayerCount: 2
Back
Fore
SplineSet
105.138671875 304 m 4
 91.138671875 298 66.138671875 296 60.138671875 311 c 4
 54.138671875 326 73.138671875 342 87.138671875 348 c 4
 203.138671875 393 331.138671875 443 445.138671875 493 c 4
 459.138671875 499 484.138671875 500 490.138671875 485 c 4
 496.138671875 470 477.138671875 455 463.138671875 449 c 4
 346.138671875 402 222.138671875 351 105.138671875 304 c 4
EndSplineSet
EndChar

StartChar: u10CE7
Encoding: 97 68839 96
Width: 666
VWidth: 0
Flags: W
VStem: 303.276 60<10.3281 306 388 611.672>
LayerCount: 2
Back
Fore
SplineSet
332.276367188 612 m 0
 333.276367188 612 l 0
 334.276367188 612 l 0
 353.276367188 612 363.276367188 605 363.276367188 591 c 2
 363.276367188 388 l 1
 539.276367188 601 l 2
 549.276367188 612 563.276367188 614 579.276367188 609 c 0
 597.276367188 598 618.276367188 555 615.276367188 523 c 0
 614.276367188 513 608.276367188 501 600.276367188 500 c 0
 583.276367188 497 558.276367188 537 558.276367188 537 c 1
 505.276367188 476 l 1
 476.276367188 442 l 1
 448.276367188 408 l 1
 420.276367188 374 l 1
 392.276367188 340 l 1
 363.276367188 306 l 1
 363.276367188 31 l 2
 363.276367188 17 353.276367188 10 334.276367188 10 c 0
 333.276367188 10 l 0
 332.276367188 10 l 0
 313.276367188 10 303.276367188 17 303.276367188 31 c 2
 303.276367188 306 l 1
 275.276367188 340 l 1
 247.276367188 374 l 1
 218.276367188 408 l 1
 190.276367188 442 l 1
 162.276367188 476 l 1
 108.276367188 537 l 1
 108.276367188 537 84.2763671875 497 67.2763671875 500 c 0
 59.2763671875 501 52.2763671875 513 51.2763671875 523 c 0
 48.2763671875 555 70.2763671875 598 88.2763671875 609 c 0
 104.276367188 614 117.276367188 612 127.276367188 601 c 2
 303.276367188 388 l 1
 303.276367188 591 l 2
 303.276367188 605 313.276367188 612 332.276367188 612 c 0
EndSplineSet
EndChar

StartChar: u10CC3
Encoding: 61 68803 97
Width: 583
VWidth: 0
Flags: W
VStem: 96 67<217.064 430.788> 416 67<217.064 430.788>
LayerCount: 2
Back
Fore
SplineSet
129 641 m 2
 142 641 154 635 159 626 c 2
 195 561 l 1
 215 584 237 608 262 631 c 0
 263 632 264 633 265 634 c 2
 266 634 l 1
 268 636 271 637 274 638 c 0
 279 640 284 641 289 641 c 2
 290 641 l 2
 295 641 300 640 305 638 c 0
 308 637 311 636 313 634 c 2
 314 634 l 2
 315 633 316 632 317 631 c 0
 342 608 364 584 384 561 c 1
 420 626 l 2
 426 638 446 643 463 639 c 0
 480 635 525 570 530 547 c 1
 530 521 521 515 499 514 c 1
 479 521 454 557 454 557 c 1
 425 505 l 1
 464 444 483 384 483 323 c 0
 483 263 463 203 425 143 c 1
 440 117 l 1
 454 91 l 1
 454 91 482 130 503 134 c 0
 523 138 531 106 530 92 c 0
 528 60 480 14 463 10 c 0
 446 6 426 11 420 23 c 2
 384 88 l 1
 364 65 343 41 317 18 c 0
 316 17 314 16 313 15 c 2
 311 14 308 12 305 11 c 2
 304 11 l 1
 303 11 l 1
 299 10 294 9 289 9 c 0
 284 9 280 10 276 11 c 2
 275 11 l 1
 274 11 l 2
 271 12 268 13 266 15 c 2
 265 16 l 2
 264 17 263 17 262 18 c 0
 236 41 215 65 195 88 c 1
 159 23 l 2
 152 11 133 6 116 10 c 0
 99 14 48 95 56 106 c 2
 56 106 73 139 85 131 c 0
 115 111 125 91 125 91 c 1
 139 117 l 1
 154 143 l 1
 116 203 96 263 96 323 c 0
 96 384 115 444 154 505 c 1
 140 531 l 1
 125 558 l 1
 125 558 107 529 79 504 c 1
 57 514 53 518 53 545 c 1
 62 576 99 635 116 639 c 0
 120 640 125 641 129 641 c 2
290 578 m 1
 263 550 239 523 221 495 c 0
 220 495 l 0
 182 438 163 380 163 323 c 0
 163 268 180 214 216 159 c 0
 219 156 222 153 223 149 c 0
 241 123 264 97 290 71 c 1
 316 97 338 123 356 149 c 0
 357 153 360 156 363 159 c 0
 399 214 416 268 416 323 c 0
 416 380 397 438 359 495 c 0
 358 495 l 0
 340 523 317 550 290 578 c 1
EndSplineSet
EndChar

StartChar: uni10CD2_uni200D_uni10CD0
Encoding: 114 -1 98
Width: 377
VWidth: 0
Flags: W
VStem: 198.795 60<5.37384 329 409 446>
LayerCount: 2
Back
Fore
SplineSet
280.794921875 419 m 1
 295.794921875 426 308.794921875 426 320.794921875 417 c 0
 333.794921875 408 332.794921875 401 319.794921875 393 c 2
 258.794921875 360 l 1
 258.794921875 22 l 2
 258.794921875 10 248.794921875 5 227.794921875 5 c 0
 208.794921875 5 198.794921875 10 198.794921875 22 c 2
 198.794921875 329 l 1
 174.794921875 315 l 2
 161.794921875 306 146.794921875 307 132.794921875 316 c 0
 118.794921875 325 119.794921875 334 136.794921875 342 c 2
 198.794921875 375 l 1
 198.794921875 444 l 1
 198.794921875 446 l 1
 101.794921875 395 l 2
 85.794921875 384 71.794921875 385 59.794921875 395 c 0
 47.794921875 405 49.794921875 415 64.794921875 422 c 2
 207.794921875 496 l 2
 213.794921875 500 220.794921875 503 227.794921875 503 c 0
 248.794921875 503 258.794921875 498 258.794921875 486 c 2
 258.794921875 444 l 1
 258.794921875 409 l 1
 280.794921875 419 l 1
EndSplineSet
Ligature2: "OLD_HUNGARIAN_LIGATURES" u10CD2 u200D u10CD0
EndChar

StartChar: uni10CAE_uni200D_uni10CAE
Encoding: 54 -1 99
Width: 618
VWidth: 0
Flags: W
VStem: 76 80<6.89844 254 346 566> 465 77<6.5 251 346 563>
LayerCount: 2
Back
Fore
SplineSet
542 29 m 0
 542 13 529 5 503 5 c 0
 477 5 465 13 465 29 c 1
 465 251 l 1
 346 132 l 2
 322 112 299 112 278 132 c 1
 156 254 l 1
 156 29 l 1
 156 13 142 5 114 5 c 0
 88 5 76 13 76 29 c 2
 76 652 l 1
 76 659 82 667 94 673 c 0
 118 679 136 675 150 663 c 2
 310 504 l 1
 468 661 l 2
 476 671 487 676 503 676 c 0
 529 676 542 668 542 652 c 2
 542 29 l 0
465 346 m 1
 465 563 l 1
 346 445 l 2
 323 423 300 423 278 445 c 1
 156 566 l 1
 156 346 l 1
 203 301 l 1
 310 192 l 1
 417 298 l 1
 465 346 l 1
EndSplineSet
Ligature2: "OLD_HUNGARIAN_LIGATURES" u10CAE u200D u10CAE
EndChar

StartChar: uni10C92_uni200D_uni10C90
Encoding: 56 -1 100
Width: 465
VWidth: 0
Flags: W
VStem: 243.667 80<6.51917 440 547 598>
LayerCount: 2
Back
Fore
SplineSet
353.666992188 562 m 1
 373.666992188 572 391.666992188 570 408.666992188 558 c 0
 425.666992188 546 423.666992188 536 406.666992188 526 c 2
 323.666992188 482 l 1
 323.666992188 28 l 2
 323.666992188 12 310.666992188 5 282.666992188 5 c 0
 256.666992188 5 243.666992188 12 243.666992188 28 c 2
 243.666992188 440 l 1
 210.666992188 422 l 2
 192.666992188 410 174.666992188 411 155.666992188 423 c 0
 136.666992188 435 137.666992188 447 160.666992188 458 c 2
 243.666992188 503 l 1
 243.666992188 594 l 1
 243.666992188 598 l 1
 113.666992188 529 l 2
 91.6669921875 515 73.6669921875 515 57.6669921875 529 c 0
 41.6669921875 543 43.6669921875 555 63.6669921875 565 c 2
 255.666992188 665 l 2
 264.666992188 671 273.666992188 674 282.666992188 674 c 0
 310.666992188 674 323.666992188 667 323.666992188 651 c 2
 323.666992188 594 l 1
 323.666992188 547 l 1
 353.666992188 561 l 1
 353.666992188 562 l 1
EndSplineSet
Ligature2: "OLD_HUNGARIAN_LIGATURES" u10C92 u200D u10C90
EndChar

StartChar: uni10C93_uni200D_uni10CAE
Encoding: 53 -1 101
Width: 602
VWidth: 0
Flags: W
VStem: 70 77<7.48438 208> 453 80<7.87619 208>
LayerCount: 2
Back
Fore
SplineSet
302 583 m 1
 150 339 l 1
 302 98 l 1
 450 339 l 1
 302 583 l 1
70 339 m 1
 70 345 71 349 73 351 c 2
 263 660 l 1
 271 671 283 676 301 676 c 0
 319 676 330 671 337 660 c 2
 530 351 l 2
 532 349 533 345 533 339 c 2
 533 29 l 2
 533 14 521 6 495 6 c 0
 467 6 453 14 453 29 c 2
 453 208 l 1
 337 21 l 2
 328 10 315 5 298 5 c 0
 281 5 269 10 263 21 c 2
 147 208 l 1
 147 29 l 2
 147 14 134 6 108 6 c 0
 82 6 70 14 70 29 c 2
 70 339 l 1
EndSplineSet
Ligature2: "OLD_HUNGARIAN_LIGATURES" u10C93 u200D u10CAE
EndChar

StartChar: u10CE9
Encoding: 99 68841 102
Width: 460
VWidth: 0
Flags: W
LayerCount: 2
Back
Fore
SplineSet
91.712890625 504 m 2
 104.712890625 504 112.712890625 500 117.712890625 492 c 2
 231.712890625 305 l 1
 245.712890625 329 l 1
 260.712890625 352 l 1
 274.712890625 375 l 1
 288.712890625 399 l 1
 302.712890625 422 l 1
 307.712890625 429 l 1
 321.712890625 451 l 2
 318.712890625 449 281.712890625 421 262.712890625 428 c 0
 252.712890625 431 242.712890625 445 247.712890625 454 c 0
 258.712890625 474 308.712890625 494 342.712890625 502 c 0
 349.712890625 504 357.712890625 503 365.712890625 503 c 0
 371.712890625 504 376.712890625 504 384.712890625 502 c 0
 403.712890625 498 409.712890625 491 400.712890625 479 c 2
 399.712890625 478 l 1
 270.712890625 254 l 1
 399.712890625 31 l 1
 400.712890625 30 l 2
 409.712890625 18 403.712890625 11 384.712890625 7 c 0
 376.712890625 5 370.712890625 5 364.712890625 6 c 0
 356.712890625 6 349.712890625 5 342.712890625 7 c 0
 308.712890625 15 258.712890625 35 247.712890625 55 c 0
 242.712890625 64 252.712890625 78 262.712890625 81 c 0
 281.712890625 88 318.712890625 59 321.712890625 57 c 2
 307.712890625 79 l 1
 302.712890625 87 l 1
 288.712890625 110 l 1
 274.712890625 134 l 1
 260.712890625 157 l 1
 245.712890625 180 l 1
 231.712890625 204 l 1
 117.712890625 17 l 2
 112.712890625 9 104.712890625 5 91.712890625 5 c 0
 90.712890625 5 l 0
 86.712890625 5 81.712890625 5 76.712890625 6 c 0
 56.712890625 9 51.712890625 16 62.712890625 30 c 0
 63.712890625 32 65.712890625 35 66.712890625 37 c 2
 163.712890625 197 l 2
 174.712890625 216 185.712890625 235 196.712890625 254 c 1
 185.712890625 274 173.712890625 294 162.712890625 313 c 2
 66.712890625 472 l 2
 65.712890625 474 63.712890625 477 62.712890625 479 c 0
 51.712890625 493 56.712890625 500 76.712890625 503 c 0
 81.712890625 504 86.712890625 504 90.712890625 504 c 0
 91.712890625 504 l 2
EndSplineSet
EndChar

StartChar: u10CB2
Encoding: 50 68786 103
Width: 578
VWidth: 0
Flags: W
VStem: 62 80<242.328 438.588> 259 77<109 568> 447 76<238.139 438.275>
LayerCount: 2
Back
Fore
SplineSet
293 673 m 0
 306 673 318 670 328 664 c 0
 458 554 523 445 523 339 c 0
 523 231 458 122 328 14 c 0
 318 8 306 5 293 5 c 0
 279 5 268 8 260 14 c 0
 128 122 62 231 62 339 c 0
 62 449 128 558 260 664 c 0
 268 670 279 673 293 673 c 0
259 574 m 2
 256 570 252 566 249 563 c 0
 178 488 142 414 142 339 c 0
 142 317 143 299 150 281 c 0
 176 211 184 176 259 102 c 1
 259 574 l 2
336 568 m 0
 336 109 l 1
 410 186 447 263 447 339 c 0
 447 413 410 489 336 568 c 0
EndSplineSet
EndChar

StartChar: u10CC8
Encoding: 66 68808 104
Width: 457
VWidth: 0
Flags: W
LayerCount: 2
Back
Fore
SplineSet
88.712890625 577 m 2
 101.712890625 577 109.712890625 572 114.712890625 563 c 2
 228.712890625 350 l 1
 342.712890625 563 l 2
 349.712890625 573 363.712890625 577 382.712890625 574 c 0
 401.712890625 571 406.712890625 562 397.712890625 548 c 2
 284.712890625 338 l 1
 307.712890625 350 330.712890625 360 356.712890625 373 c 0
 374.712890625 382 384.712890625 380 389.712890625 367 c 0
 394.712890625 355 370.712890625 336 370.712890625 336 c 1
 263.712890625 283 l 1
 397.712890625 35 l 2
 406.712890625 22 400.712890625 13 381.712890625 8 c 0
 362.712890625 3 349.712890625 7 342.712890625 20 c 2
 228.712890625 233 l 1
 114.712890625 20 l 2
 106.712890625 8 93.712890625 3 73.712890625 6 c 0
 53.712890625 9 48.712890625 19 59.712890625 35 c 2
 164.712890625 234 l 1
 105.712890625 205 l 2
 87.712890625 196 77.712890625 198 72.712890625 210 c 0
 67.712890625 223 73.712890625 233 91.712890625 242 c 0
 129.712890625 261 161.712890625 277 194.712890625 293 c 1
 59.712890625 548 l 2
 49.712890625 564 54.712890625 573 74.712890625 576 c 0
 79.712890625 577 84.712890625 577 88.712890625 577 c 2
EndSplineSet
EndChar

StartChar: u10CA9
Encoding: 41 68777 105
Width: 574
VWidth: 0
Flags: W
LayerCount: 2
Back
Fore
SplineSet
99.5927734375 675 m 2
 116.592773438 674 127.592773438 669 133.592773438 659 c 2
 287.592773438 408 l 1
 306.592773438 440 l 1
 325.592773438 471 l 1
 344.592773438 502 l 1
 364.592773438 534 l 1
 383.592773438 565 l 1
 389.592773438 574 l 1
 407.592773438 605 l 2
 403.592773438 602 355.592773438 564 329.592773438 573 c 0
 316.592773438 577 301.592773438 597 308.592773438 609 c 0
 323.592773438 636 390.592773438 661 436.592773438 672 c 0
 445.592773438 674 456.592773438 674 466.592773438 674 c 0
 474.592773438 675 483.592773438 675 493.592773438 673 c 0
 519.592773438 668 526.592773438 657 514.592773438 641 c 2
 513.592773438 640 l 1
 340.592773438 340 l 1
 513.592773438 40 l 1
 514.592773438 39 l 2
 526.592773438 23 519.592773438 13 493.592773438 8 c 0
 483.592773438 6 474.592773438 5 466.592773438 6 c 0
 456.592773438 6 445.592773438 6 436.592773438 8 c 0
 390.592773438 19 323.592773438 45 308.592773438 72 c 0
 301.592773438 84 316.592773438 103 329.592773438 107 c 0
 355.592773438 116 403.592773438 79 407.592773438 76 c 2
 389.592773438 105 l 1
 383.592773438 115 l 1
 364.592773438 147 l 1
 344.592773438 178 l 1
 325.592773438 209 l 1
 306.592773438 241 l 1
 287.592773438 272 l 1
 133.592773438 21 l 2
 127.592773438 11 116.592773438 6 99.5927734375 5 c 0
 97.5927734375 5 l 0
 91.5927734375 5 85.5927734375 5 78.5927734375 6 c 0
 51.5927734375 10 46.5927734375 21 60.5927734375 39 c 0
 62.5927734375 42 63.5927734375 44 65.5927734375 47 c 2
 196.592773438 263 l 2
 211.592773438 289 226.592773438 314 240.592773438 340 c 1
 225.592773438 366 210.592773438 393 195.592773438 419 c 2
 65.5927734375 633 l 2
 63.5927734375 636 62.5927734375 638 60.5927734375 641 c 0
 46.5927734375 659 51.5927734375 670 78.5927734375 674 c 0
 85.5927734375 675 91.5927734375 675 97.5927734375 675 c 0
 99.5927734375 675 l 2
EndSplineSet
EndChar

StartChar: uni10C87_uni200D_uni10CAF
Encoding: 51 -1 106
Width: 792
VWidth: 0
Flags: W
HStem: 320 49<544 742.836>
VStem: 76 81<83 230 296 443 509 682.102> 464 80<6.69336 185 251 320 369 393 459 606>
LayerCount: 2
Back
Fore
SplineSet
464 393 m 1
 157 230 l 1
 157 83 l 1
 464 251 l 1
 464 393 l 1
157 296 m 1
 464 459 l 1
 464 606 l 1
 157 443 l 1
 157 414 l 1
 157 296 l 1
544 369 m 1
 701 369 l 2
 729 369 743 360 743 344 c 0
 743 328 729 320 701 320 c 2
 544 320 l 1
 544 29 l 2
 544 13 531 5 505 5 c 0
 477 5 464 13 464 29 c 2
 464 185 l 1
 145 11 l 1
 133 7 124 5 118 5 c 0
 90 5 76 13 76 29 c 2
 76 660 l 2
 76 676 90 684 118 684 c 0
 145 684 157 676 157 660 c 2
 157 509 l 1
 476 678 l 2
 488 682 497 684 505 684 c 0
 531 684 544 676 544 660 c 2
 544 369 l 1
EndSplineSet
Ligature2: "OLD_HUNGARIAN_LIGATURES" u10C87 u200D u10CAF
EndChar

StartChar: uni10C93_uni200D_uni10CA5
Encoding: 55 -1 107
Width: 584
VWidth: 0
Flags: W
VStem: 76 79<6.69336 209 473 672.307>
LayerCount: 2
Back
Fore
SplineSet
306 583 m 1
 155 341 l 1
 306 100 l 1
 456 341 l 1
 306 583 l 1
76 650 m 1
 76 666 88 674 114 674 c 0
 141 674 155 666 155 650 c 2
 155 473 l 1
 267 659 l 1
 274 667 288 672 306 672 c 0
 324 672 335 667 341 659 c 2
 532 350 l 2
 536 342 536 336 532 332 c 2
 341 23 l 2
 333 11 321 5 305 5 c 0
 289 5 276 11 267 23 c 2
 155 209 l 1
 155 29 l 2
 155 13 141 5 114 5 c 0
 88 5 76 13 76 29 c 2
 76 650 l 1
EndSplineSet
Ligature2: "OLD_HUNGARIAN_LIGATURES" u10C93 u200D u10CA5
EndChar

StartChar: u10CA7
Encoding: 39 68775 108
Width: 848
VWidth: 0
Flags: W
VStem: 384.373 80<11.8438 388 493 776.312>
LayerCount: 2
Back
Fore
SplineSet
422.373046875 778 m 0
 423.373046875 778 423.373046875 778 424.373046875 778 c 0
 425.373046875 778 424.373046875 778 425.373046875 778 c 0
 451.373046875 778 464.373046875 769 464.373046875 751 c 2
 464.373046875 493 l 1
 701.373046875 764 l 2
 714.373046875 778 732.373046875 782 754.373046875 775 c 1
 778.373046875 761 806.373046875 706 802.373046875 665 c 0
 801.373046875 653 793.373046875 638 782.373046875 636 c 0
 759.373046875 633 726.373046875 683 726.373046875 683 c 1
 654.373046875 605 l 1
 616.373046875 561 l 1
 578.373046875 518 l 1
 540.373046875 474 l 1
 502.373046875 431 l 1
 464.373046875 388 l 1
 464.373046875 38 l 2
 464.373046875 20 451.373046875 10 425.373046875 10 c 0
 424.373046875 10 425.373046875 10 424.373046875 10 c 0
 423.373046875 10 423.373046875 10 422.373046875 10 c 0
 396.373046875 10 384.373046875 20 384.373046875 38 c 2
 384.373046875 388 l 1
 346.373046875 431 l 1
 308.373046875 474 l 1
 269.373046875 518 l 1
 231.373046875 561 l 1
 193.373046875 605 l 1
 121.373046875 683 l 1
 121.373046875 683 89.373046875 633 66.373046875 636 c 0
 55.373046875 638 46.373046875 653 45.373046875 665 c 0
 41.373046875 706 70.373046875 761 94.373046875 775 c 1
 116.373046875 782 134.373046875 778 147.373046875 764 c 2
 384.373046875 493 l 1
 384.373046875 751 l 2
 384.373046875 769 396.373046875 778 422.373046875 778 c 0
EndSplineSet
EndChar

StartChar: u10C83
Encoding: 3 68739 109
Width: 675
VWidth: 0
Flags: W
VStem: 102 80<278.097 514.644> 487 80<278.097 514.644>
LayerCount: 2
Back
Fore
SplineSet
141 787 m 2
 157 787 171 780 177 769 c 2
 221 688 l 1
 245 717 271 746 302 775 c 0
 303 776 304 777 305 778 c 2
 306 779 l 1
 307 779 l 2
 310 781 313 783 316 784 c 0
 322 786 328 787 334 787 c 2
 335 787 l 2
 341 787 347 786 353 784 c 0
 356 783 359 781 362 779 c 2
 363 779 l 1
 364 778 l 2
 365 777 366 776 367 775 c 0
 398 746 424 717 448 688 c 1
 492 769 l 2
 500 784 523 790 544 785 c 0
 565 780 618 699 624 671 c 1
 624 639 614 632 587 631 c 1
 563 639 532 685 532 685 c 1
 497 620 l 1
 544 545 567 471 567 396 c 0
 567 322 544 247 498 173 c 1
 515 141 l 1
 533 109 l 1
 533 109 566 157 591 162 c 0
 616 167 625 127 624 110 c 0
 622 71 565 14 544 9 c 0
 523 4 500 11 492 26 c 2
 449 105 l 1
 425 76 398 48 367 19 c 0
 366 18 365 17 363 16 c 2
 363 15 l 1
 362 15 l 2
 359 13 356 12 353 11 c 2
 352 10 l 1
 351 10 l 1
 346 8 340 8 334 8 c 0
 328 8 323 8 318 10 c 2
 317 10 l 1
 316 11 l 2
 312 12 310 13 307 15 c 2
 306 16 l 1
 305 17 303 18 302 19 c 0
 271 48 244 76 220 105 c 1
 177 26 l 2
 169 11 146 4 125 9 c 0
 104 14 44 115 54 128 c 2
 54 128 75 169 89 159 c 0
 125 135 136 110 136 110 c 1
 154 142 l 1
 171 173 l 1
 125 247 102 322 102 396 c 0
 102 471 125 545 172 620 c 1
 154 652 l 1
 137 685 l 1
 137 685 114 650 81 619 c 1
 55 632 50 636 50 669 c 1
 61 707 104 780 125 785 c 0
 130 786 136 787 141 787 c 2
335 710 m 1
 302 676 274 642 252 608 c 0
 251 607 l 0
 205 536 182 466 182 396 c 0
 182 328 204 261 247 193 c 0
 251 189 254 185 255 181 c 0
 277 149 303 116 335 84 c 1
 367 116 392 149 414 181 c 0
 415 185 418 189 422 193 c 0
 465 261 487 328 487 396 c 0
 487 466 464 536 418 607 c 0
 417 608 l 0
 395 642 368 676 335 710 c 1
EndSplineSet
EndChar

StartChar: uni10C87_uni200D_uni10CB0
Encoding: 52 -1 110
Width: 576
VWidth: 0
Flags: W
HStem: 313 47<57.4316 234.394 350.394 519.355>
VStem: 252.394 80<6.70563 313 467 669.102>
LayerCount: 2
Back
Fore
SplineSet
63.3935546875 636 m 0
 49.3935546875 652 55.3935546875 662 80.3935546875 668 c 0
 105.393554688 674 124.393554688 670 137.393554688 654 c 2
 252.393554688 467 l 1
 252.393554688 647 l 2
 252.393554688 663 264.393554688 671 290.393554688 671 c 0
 318.393554688 671 332.393554688 663 332.393554688 647 c 2
 332.393554688 467 l 1
 448.393554688 654 l 2
 456.393554688 670 472.393554688 675 497.393554688 669 c 0
 522.393554688 663 530.393554688 652 522.393554688 636 c 2
 350.393554688 360 l 1
 480.393554688 360 l 2
 506.393554688 360 519.393554688 352 519.393554688 336 c 0
 519.393554688 321 506.393554688 313 480.393554688 313 c 2
 332.393554688 313 l 1
 332.393554688 28 l 2
 332.393554688 12 318.393554688 5 290.393554688 5 c 0
 264.393554688 5 252.393554688 12 252.393554688 28 c 2
 252.393554688 313 l 1
 95.3935546875 313 l 2
 70.3935546875 313 57.3935546875 321 57.3935546875 336 c 0
 57.3935546875 352 70.3935546875 360 95.3935546875 360 c 2
 234.393554688 360 l 1
 63.3935546875 636 l 0
EndSplineSet
Ligature2: "OLD_HUNGARIAN_LIGATURES" u10C87 u200D u10CB0
EndChar

StartChar: uni10CC7_uni200D_uni10CEF
Encoding: 109 -1 111
Width: 619
VWidth: 0
Flags: W
HStem: 240 36<424 570.993>
VStem: 75 61<63 173 222 331 380 509.561> 364 60<5.35596 139 188 240 276 294 343 453>
LayerCount: 2
Back
Fore
SplineSet
364 294 m 1
 136 173 l 1
 136 63 l 1
 364 188 l 1
 364 294 l 1
136 222 m 1
 364 343 l 1
 364 453 l 1
 136 331 l 1
 136 309 l 1
 136 222 l 1
424 276 m 1
 540 276 l 2
 561 276 571 270 571 258 c 0
 571 246 561 240 540 240 c 2
 424 240 l 1
 424 23 l 2
 424 11 414 5 394 5 c 0
 373 5 364 11 364 23 c 2
 364 139 l 1
 126 10 l 1
 117 7 111 5 106 5 c 0
 85 5 75 11 75 23 c 2
 75 492 l 2
 75 504 85 510 106 510 c 0
 126 510 136 504 136 492 c 2
 136 380 l 1
 372 506 l 2
 381 509 388 510 394 510 c 0
 414 510 424 504 424 492 c 2
 424 276 l 1
EndSplineSet
Ligature2: "OLD_HUNGARIAN_LIGATURES" u10CC7 u200D u10CEF
EndChar

StartChar: u10CA1
Encoding: 33 68769 112
Width: 787
VWidth: 0
Flags: W
VStem: 163.521 89<359.858 416.024> 537.521 90<355.123 416.024>
LayerCount: 2
Back
Fore
SplineSet
387.520507812 777 m 2
 388.520507812 777 l 2
 390.520507812 777 393.520507812 777 395.520507812 777 c 0
 397.520507812 777 400.520507812 777 402.520507812 777 c 2
 415.520507812 777 426.520507812 774 434.520507812 767 c 0
 502.520507812 702 552.520507812 637 584.520507812 571 c 0
 590.520507812 565 596.520507812 559 602.520507812 553 c 0
 632.520507812 524 686.520507812 454 686.520507812 454 c 2
 697.520507812 441 691.520507812 424 673.520507812 416 c 0
 657.520507812 409 637.520507812 411 625.520507812 420 c 1
 626.520507812 411 627.520507812 402 627.520507812 393 c 0
 627.520507812 388 626.520507812 382 626.520507812 377 c 0
 634.520507812 370 642.520507812 362 650.520507812 354 c 0
 680.520507812 325 733.520507812 256 733.520507812 256 c 2
 744.520507812 243 739.520507812 226 721.520507812 218 c 0
 703.520507812 210 678.520507812 214 667.520507812 227 c 2
 612.520507812 292 l 1
 600.520507812 251 582.520507812 209 556.520507812 168 c 1
 560.520507812 164 565.520507812 159 569.520507812 155 c 0
 599.520507812 126 653.520507812 57 653.520507812 57 c 2
 664.520507812 44 658.520507812 26 640.520507812 18 c 0
 622.520507812 10 598.520507812 15 587.520507812 28 c 2
 517.520507812 110 l 1
 493.520507812 80 465.520507812 49 434.520507812 19 c 0
 426.520507812 12 415.520507812 9 402.520507812 9 c 0
 400.520507812 9 397.520507812 9 395.520507812 9 c 0
 393.520507812 9 390.520507812 9 388.520507812 9 c 0
 375.520507812 9 363.520507812 12 355.520507812 19 c 0
 324.520507812 49 297.520507812 80 273.520507812 110 c 1
 203.520507812 28 l 2
 192.520507812 15 167.520507812 10 149.520507812 18 c 0
 131.520507812 26 126.520507812 44 137.520507812 57 c 2
 137.520507812 57 190.520507812 126 220.520507812 155 c 0
 224.520507812 159 229.520507812 164 233.520507812 168 c 1
 207.520507812 209 189.520507812 251 177.520507812 292 c 1
 122.520507812 227 l 2
 111.520507812 214 87.5205078125 210 69.5205078125 218 c 0
 51.5205078125 226 45.5205078125 243 56.5205078125 256 c 2
 56.5205078125 256 109.520507812 325 139.520507812 354 c 0
 147.520507812 362 155.520507812 370 163.520507812 377 c 0
 163.520507812 382 163.520507812 388 163.520507812 393 c 0
 163.520507812 402 163.520507812 411 164.520507812 420 c 1
 152.520507812 411 132.520507812 409 116.520507812 416 c 0
 98.5205078125 424 93.5205078125 441 104.520507812 454 c 2
 104.520507812 454 157.520507812 524 187.520507812 553 c 0
 193.520507812 559 200.520507812 565 206.520507812 571 c 0
 238.520507812 637 287.520507812 702 355.520507812 767 c 0
 363.520507812 774 374.520507812 777 387.520507812 777 c 2
395.520507812 697 m 1
 300.520507812 592 252.520507812 491 252.520507812 393 c 0
 252.520507812 292 300.520507812 191 395.520507812 89 c 1
 490.520507812 191 537.520507812 292 537.520507812 393 c 0
 537.520507812 491 490.520507812 592 395.520507812 697 c 1
EndSplineSet
EndChar

StartChar: u10C95
Encoding: 21 68757 113
Width: 656
VWidth: 0
Flags: W
LayerCount: 2
Back
Fore
SplineSet
140.052734375 781 m 2
 141.052734375 781 143.052734375 781 144.052734375 781 c 0
 145.052734375 781 147.052734375 780 148.052734375 780 c 0
 158.052734375 777 169.052734375 773 176.052734375 763 c 0
 177.052734375 763 l 1
 177.052734375 763 187.052734375 746 312.052734375 508 c 2
 329.052734375 475 l 1
 349.052734375 513 l 2
 470.052734375 743 481.052734375 763 481.052734375 763 c 1
 482.052734375 763 l 0
 489.052734375 773 500.052734375 776 510.052734375 780 c 0
 511.052734375 780 513.052734375 781 514.052734375 781 c 0
 515.052734375 781 516.052734375 781 517.052734375 781 c 0
 519.052734375 781 521.052734375 780 523.052734375 780 c 0
 526.052734375 780 530.052734375 779 533.052734375 779 c 0
 534.052734375 779 534.052734375 779 535.052734375 779 c 0
 536.052734375 778 l 0
 537.052734375 778 l 0
 540.052734375 777 544.052734375 777 547.052734375 775 c 0
 554.052734375 770 559.052734375 761 564.052734375 753 c 0
 577.052734375 732 588.052734375 707 596.052734375 686 c 0
 619.052734375 629 579.052734375 582 560.052734375 603 c 0
 541.052734375 624 525.052734375 653 519.052734375 663 c 1
 406.052734375 451 l 1
 375.052734375 393 l 1
 404.052734375 339 l 1
 519.052734375 124 l 1
 525.052734375 134 541.052734375 162 560.052734375 183 c 0
 579.052734375 204 619.052734375 157 596.052734375 100 c 0
 588.052734375 79 577.052734375 55 564.052734375 34 c 0
 559.052734375 26 554.052734375 17 547.052734375 12 c 0
 544.052734375 10 540.052734375 9 536.052734375 8 c 0
 535.052734375 8 l 0
 534.052734375 8 534.052734375 8 533.052734375 8 c 0
 530.052734375 8 528.052734375 7 525.052734375 7 c 0
 522.052734375 7 520.052734375 6 517.052734375 6 c 0
 514.052734375 6 511.052734375 6 508.052734375 7 c 0
 498.052734375 10 488.052734375 14 481.052734375 23 c 0
 481.052734375 23 471.052734375 41 346.052734375 278 c 2
 329.052734375 311 l 1
 309.052734375 274 l 2
 188.052734375 43 177.052734375 23 177.052734375 23 c 1
 176.052734375 23 l 0
 169.052734375 14 159.052734375 11 150.052734375 7 c 0
 149.052734375 7 149.052734375 6 148.052734375 6 c 0
 146.052734375 6 142.052734375 6 140.052734375 6 c 0
 137.052734375 6 135.052734375 7 132.052734375 7 c 0
 130.052734375 7 127.052734375 8 125.052734375 8 c 0
 124.052734375 8 124.052734375 8 123.052734375 8 c 0
 122.052734375 8 l 0
 118.052734375 9 114.052734375 10 111.052734375 12 c 0
 104.052734375 17 99.052734375 26 94.052734375 34 c 0
 81.052734375 55 70.052734375 79 62.052734375 100 c 0
 39.052734375 157 78.052734375 204 97.052734375 183 c 0
 116.052734375 162 133.052734375 134 139.052734375 124 c 1
 253.052734375 338 l 1
 283.052734375 393 l 1
 253.052734375 449 l 1
 139.052734375 663 l 1
 133.052734375 653 116.052734375 624 97.052734375 603 c 0
 78.052734375 582 39.052734375 629 62.052734375 686 c 0
 70.052734375 707 81.052734375 732 94.052734375 753 c 0
 99.052734375 761 104.052734375 770 111.052734375 775 c 0
 114.052734375 777 118.052734375 777 121.052734375 778 c 0
 123.052734375 779 l 0
 124.052734375 779 124.052734375 779 125.052734375 779 c 0
 128.052734375 779 131.052734375 780 134.052734375 780 c 0
 136.052734375 780 138.052734375 781 140.052734375 781 c 2
EndSplineSet
EndChar

StartChar: u10CB1
Encoding: 49 68785 114
Width: 881
VWidth: 0
Flags: W
HStem: 235 120<89.7396 125.058 758.281 794.03> 394 120<90.7396 126.058 757.281 792.282>
VStem: 401.385 81<112 181 272 333 424 663.812>
LayerCount: 2
Back
Fore
SplineSet
440.384765625 673 m 2
 441.384765625 673 440.384765625 673 441.384765625 673 c 0
 442.384765625 673 442.384765625 673 443.384765625 673 c 0
 456.384765625 673 466.384765625 671 472.384765625 667 c 0
 474.384765625 666 475.384765625 665 476.384765625 664 c 0
 480.384765625 660 482.384765625 655 482.384765625 649 c 2
 482.384765625 424 l 1
 718.384765625 661 l 2
 731.384765625 673 749.384765625 676 771.384765625 670 c 1
 795.384765625 658 824.384765625 610 820.384765625 575 c 0
 820.384765625 572 819.384765625 569 818.384765625 566 c 0
 817.384765625 563 815.384765625 560 813.384765625 558 c 0
 809.384765625 553 804.384765625 550 799.384765625 549 c 0
 798.384765625 549 796.384765625 549 795.384765625 549 c 0
 794.384765625 549 792.384765625 550 790.384765625 550 c 0
 787.384765625 551 784.384765625 552 781.384765625 554 c 0
 762.384765625 565 744.384765625 589 744.384765625 589 c 1
 672.384765625 522 l 1
 634.384765625 484 l 1
 596.384765625 446 l 1
 558.384765625 409 l 1
 520.384765625 371 l 1
 482.384765625 333 l 1
 482.384765625 272 l 1
 715.384765625 505 l 2
 728.384765625 517 746.384765625 520 768.384765625 514 c 1
 792.384765625 502 821.384765625 454 817.384765625 419 c 0
 816.384765625 408 807.384765625 395 796.384765625 394 c 0
 773.384765625 391 741.384765625 434 741.384765625 434 c 1
 669.384765625 366 l 1
 631.384765625 328 l 1
 593.384765625 291 l 1
 555.384765625 253 l 1
 517.384765625 215 l 1
 482.384765625 181 l 1
 482.384765625 112 l 1
 716.384765625 346 l 2
 729.384765625 358 748.384765625 361 770.384765625 355 c 1
 794.384765625 343 822.384765625 295 818.384765625 260 c 0
 817.384765625 249 808.384765625 236 797.384765625 235 c 0
 774.384765625 232 742.384765625 275 742.384765625 275 c 1
 670.384765625 207 l 1
 632.384765625 169 l 1
 594.384765625 132 l 1
 556.384765625 94 l 1
 518.384765625 56 l 1
 480.384765625 19 l 1
 480.384765625 20 l 2
 479.384765625 18 477.384765625 15 475.384765625 13 c 0
 473.384765625 11 471.384765625 10 468.384765625 9 c 0
 467.384765625 9 l 0
 464.384765625 8 461.384765625 7 458.384765625 6 c 0
 453.384765625 5 449.384765625 5 443.384765625 5 c 0
 442.384765625 5 442.384765625 5 441.384765625 5 c 0
 440.384765625 5 441.384765625 5 440.384765625 5 c 0
 434.384765625 5 429.384765625 5 424.384765625 6 c 0
 421.384765625 7 418.384765625 8 415.384765625 9 c 0
 412.384765625 10 410.384765625 11 408.384765625 13 c 0
 407.384765625 13 l 0
 405.384765625 15 404.384765625 18 403.384765625 20 c 0
 403.384765625 19 l 1
 365.384765625 56 l 1
 327.384765625 94 l 1
 289.384765625 132 l 1
 251.384765625 169 l 1
 213.384765625 207 l 1
 141.384765625 275 l 1
 141.384765625 275 108.384765625 232 85.384765625 235 c 0
 74.384765625 236 66.384765625 249 65.384765625 260 c 0
 61.384765625 295 89.384765625 343 113.384765625 355 c 1
 135.384765625 361 153.384765625 358 166.384765625 346 c 2
 401.384765625 112 l 1
 401.384765625 181 l 1
 366.384765625 215 l 1
 328.384765625 253 l 1
 290.384765625 291 l 1
 252.384765625 328 l 1
 214.384765625 366 l 1
 142.384765625 434 l 1
 142.384765625 434 109.384765625 391 86.384765625 394 c 0
 75.384765625 395 67.384765625 408 66.384765625 419 c 0
 62.384765625 454 90.384765625 502 114.384765625 514 c 1
 136.384765625 520 154.384765625 517 167.384765625 505 c 2
 401.384765625 272 l 1
 401.384765625 333 l 1
 363.384765625 371 l 1
 325.384765625 409 l 1
 287.384765625 446 l 1
 249.384765625 484 l 1
 211.384765625 522 l 1
 139.384765625 589 l 1
 139.384765625 589 121.384765625 565 102.384765625 554 c 0
 97.384765625 551 92.384765625 549 88.384765625 549 c 0
 87.384765625 549 84.384765625 549 83.384765625 549 c 0
 82.384765625 549 81.384765625 550 80.384765625 550 c 0
 79.384765625 550 l 0
 78.384765625 551 77.384765625 551 76.384765625 552 c 0
 74.384765625 554 72.384765625 556 70.384765625 558 c 0
 68.384765625 560 66.384765625 563 65.384765625 566 c 0
 64.384765625 569 63.384765625 572 63.384765625 575 c 0
 59.384765625 610 87.384765625 658 111.384765625 670 c 0
 122.384765625 673 132.384765625 674 141.384765625 672 c 0
 150.384765625 670 157.384765625 667 164.384765625 661 c 2
 401.384765625 424 l 1
 401.384765625 649 l 2
 401.384765625 655 402.384765625 660 406.384765625 664 c 0
 412.384765625 670 424.384765625 673 440.384765625 673 c 2
EndSplineSet
EndChar

StartChar: u10CE3
Encoding: 93 68835 115
Width: 436
VWidth: 0
Flags: W
HStem: 277 141
VStem: 61.0439 321
LayerCount: 2
Back
Fore
SplineSet
95.0439453125 277 m 4
 84.0439453125 273 65.0439453125 272 61.0439453125 283 c 4
 56.0439453125 294 70.0439453125 306 81.0439453125 310 c 4
 167.043945312 343 264.043945312 381 349.043945312 418 c 4
 359.043945312 423 377.043945312 423 382.043945312 412 c 4
 386.043945312 401 372.043945312 389 362.043945312 385 c 4
 275.043945312 350 182.043945312 312 95.0439453125 277 c 4
EndSplineSet
EndChar

StartChar: uni10CD3_uni200D_uni10CE5
Encoding: 113 -1 116
Width: 467
VWidth: 0
Flags: W
VStem: 75 59<5.43945 157 354 502.561>
LayerCount: 2
Back
Fore
SplineSet
246 435 m 1
 134 255 l 1
 246 76 l 1
 358 255 l 1
 246 435 l 1
75 485 m 1
 75 497 84 503 103 503 c 0
 123 503 134 497 134 485 c 2
 134 354 l 1
 217 492 l 1
 222 498 232 502 246 502 c 0
 259 502 268 498 272 492 c 2
 415 262 l 2
 418 256 418 252 415 249 c 2
 272 18 l 2
 266 9 258 5 246 5 c 0
 234 5 224 9 217 18 c 2
 134 157 l 1
 134 23 l 2
 134 11 123 5 103 5 c 0
 84 5 75 11 75 23 c 2
 75 485 l 1
EndSplineSet
Ligature2: "OLD_HUNGARIAN_LIGATURES" u10CD3 u200D u10CE5
EndChar

StartChar: u10C88
Encoding: 8 68744 117
Width: 657
VWidth: 0
Flags: W
LayerCount: 2
Back
Fore
SplineSet
107.75 797 m 1
 127.75 796 140.75 790 148.75 778 c 2
 329.75 482 l 1
 510.75 778 l 2
 522.75 792 542.75 797 572.75 793 c 0
 602.75 789 611.75 777 597.75 757 c 2
 418.75 466 l 1
 455.75 482 491.75 497 532.75 515 c 0
 560.75 527 577.75 525 585.75 507 c 0
 592.75 490 554.75 463 554.75 463 c 1
 385.75 390 l 1
 597.75 46 l 2
 611.75 27 603.75 15 572.75 9 c 0
 542.75 3 521.75 9 510.75 26 c 2
 329.75 321 l 1
 148.75 26 l 2
 136.75 9 114.75 3 83.75 7 c 0
 52.75 11 44.75 24 61.75 46 c 2
 228.75 322 l 1
 135.75 282 l 2
 107.75 270 89.75 272 82.75 289 c 0
 74.75 307 84.75 322 112.75 334 c 0
 172.75 360 223.75 381 275.75 404 c 1
 61.75 757 l 2
 45.75 779 53.75 792 85.75 796 c 0
 93.75 797 100.75 797 107.75 797 c 1
EndSplineSet
EndChar

StartChar: u10CF1
Encoding: 107 68849 118
Width: 689
VWidth: 0
Flags: W
HStem: 176 90<80.6755 116.379 577.197 612.901> 294 90<81.6755 117.379 576.197 611.901>
VStem: 317.288 60<84 136 204 249 317 494.859>
LayerCount: 2
Back
Fore
SplineSet
345.288085938 502 m 2
 347.288085938 502 l 0
 348.288085938 502 l 0
 358.288085938 502 364.288085938 501 369.288085938 498 c 0
 370.288085938 497 372.288085938 496 373.288085938 495 c 0
 376.288085938 492 377.288085938 489 377.288085938 485 c 2
 377.288085938 317 l 1
 553.288085938 493 l 2
 563.288085938 502 576.288085938 504 592.288085938 500 c 0
 610.288085938 491 631.288085938 455 628.288085938 429 c 0
 628.288085938 427 628.288085938 425 627.288085938 423 c 0
 626.288085938 421 624.288085938 419 623.288085938 417 c 0
 620.288085938 413 617.288085938 411 613.288085938 410 c 0
 612.288085938 410 611.288085938 410 610.288085938 410 c 0
 609.288085938 410 607.288085938 411 606.288085938 411 c 0
 604.288085938 412 601.288085938 413 599.288085938 414 c 0
 585.288085938 422 572.288085938 440 572.288085938 440 c 1
 518.288085938 390 l 1
 490.288085938 362 l 1
 462.288085938 333 l 1
 433.288085938 305 l 1
 405.288085938 277 l 1
 377.288085938 249 l 1
 377.288085938 204 l 1
 550.288085938 377 l 2
 560.288085938 386 574.288085938 388 590.288085938 384 c 0
 608.288085938 375 629.288085938 339 626.288085938 313 c 0
 625.288085938 305 619.288085938 295 611.288085938 294 c 0
 594.288085938 292 569.288085938 324 569.288085938 324 c 1
 516.288085938 274 l 1
 488.288085938 246 l 1
 459.288085938 218 l 1
 431.288085938 190 l 1
 403.288085938 162 l 1
 377.288085938 136 l 1
 377.288085938 84 l 1
 551.288085938 259 l 2
 561.288085938 268 575.288085938 270 591.288085938 266 c 0
 609.288085938 257 630.288085938 221 627.288085938 195 c 0
 626.288085938 187 620.288085938 177 612.288085938 176 c 0
 595.288085938 174 570.288085938 206 570.288085938 206 c 1
 517.288085938 155 l 1
 488.288085938 127 l 1
 460.288085938 99 l 1
 432.288085938 71 l 1
 404.288085938 43 l 1
 375.288085938 15 l 1
 375.288085938 16 l 2
 374.288085938 14 373.288085938 12 372.288085938 11 c 0
 371.288085938 11 l 0
 370.288085938 10 368.288085938 9 366.288085938 8 c 0
 364.288085938 7 361.288085938 6 359.288085938 6 c 0
 356.288085938 5 352.288085938 5 348.288085938 5 c 0
 347.288085938 5 l 0
 345.288085938 5 l 0
 341.288085938 5 337.288085938 5 334.288085938 6 c 0
 332.288085938 6 329.288085938 7 327.288085938 8 c 0
 325.288085938 9 323.288085938 10 322.288085938 11 c 0
 321.288085938 11 l 0
 320.288085938 12 319.288085938 14 318.288085938 16 c 0
 318.288085938 15 l 1
 290.288085938 43 l 1
 261.288085938 71 l 1
 233.288085938 99 l 1
 205.288085938 127 l 1
 176.288085938 155 l 1
 123.288085938 206 l 1
 123.288085938 206 98.2880859375 174 81.2880859375 176 c 0
 73.2880859375 177 67.2880859375 187 66.2880859375 195 c 0
 63.2880859375 221 84.2880859375 257 102.288085938 266 c 0
 118.288085938 270 132.288085938 268 142.288085938 259 c 2
 317.288085938 84 l 1
 317.288085938 136 l 1
 290.288085938 162 l 1
 262.288085938 190 l 1
 234.288085938 218 l 1
 206.288085938 246 l 1
 177.288085938 274 l 1
 124.288085938 324 l 1
 124.288085938 324 99.2880859375 292 82.2880859375 294 c 0
 74.2880859375 295 68.2880859375 305 67.2880859375 313 c 0
 64.2880859375 339 85.2880859375 375 103.288085938 384 c 0
 119.288085938 388 133.288085938 386 143.288085938 377 c 2
 317.288085938 204 l 1
 317.288085938 249 l 1
 288.288085938 277 l 1
 260.288085938 305 l 1
 232.288085938 333 l 1
 203.288085938 362 l 1
 175.288085938 390 l 1
 121.288085938 440 l 1
 121.288085938 440 108.288085938 422 94.2880859375 414 c 0
 91.2880859375 412 86.2880859375 410 83.2880859375 410 c 0
 82.2880859375 410 81.2880859375 410 80.2880859375 410 c 0
 79.2880859375 410 78.2880859375 411 77.2880859375 411 c 0
 76.2880859375 411 75.2880859375 411 74.2880859375 412 c 0
 72.2880859375 413 71.2880859375 415 70.2880859375 417 c 0
 69.2880859375 419 67.2880859375 421 66.2880859375 423 c 0
 65.2880859375 425 65.2880859375 427 65.2880859375 429 c 0
 62.2880859375 455 83.2880859375 491 101.288085938 500 c 0
 109.288085938 502 116.288085938 502 123.288085938 501 c 0
 130.288085938 500 135.288085938 497 140.288085938 493 c 2
 317.288085938 317 l 1
 317.288085938 485 l 2
 317.288085938 489 318.288085938 492 321.288085938 495 c 0
 325.288085938 500 333.288085938 502 345.288085938 502 c 2
EndSplineSet
EndChar

StartChar: uni10CC7_uni200D_uni10CF0
Encoding: 110 -1 119
Width: 458
VWidth: 0
Flags: W
HStem: 234 36<58.3389 189.312 276.312 401.286>
VStem: 203.312 59<5.37384 234 349 500.561>
LayerCount: 2
Back
Fore
SplineSet
62.3125 475 m 1
 52.3125 487 56.3125 494 75.3125 499 c 0
 94.3125 504 107.3125 500 117.3125 488 c 2
 203.3125 349 l 1
 203.3125 483 l 2
 203.3125 495 212.3125 501 231.3125 501 c 0
 252.3125 501 262.3125 495 262.3125 483 c 2
 262.3125 349 l 1
 349.3125 488 l 2
 355.3125 500 367.3125 504 385.3125 499 c 0
 403.3125 494 410.3125 487 404.3125 475 c 2
 276.3125 270 l 1
 373.3125 270 l 2
 392.3125 270 401.3125 263 401.3125 251 c 0
 401.3125 240 392.3125 234 373.3125 234 c 2
 262.3125 234 l 1
 262.3125 22 l 2
 262.3125 10 252.3125 5 231.3125 5 c 0
 212.3125 5 203.3125 10 203.3125 22 c 2
 203.3125 234 l 1
 86.3125 234 l 2
 67.3125 234 58.3125 240 58.3125 251 c 0
 58.3125 263 67.3125 270 86.3125 270 c 2
 189.3125 270 l 1
 62.3125 475 l 1
EndSplineSet
Ligature2: "OLD_HUNGARIAN_LIGATURES" u10CC7 u200D u10CF0
EndChar

StartChar: uni10CFB_uni200D_uni10CFE
Encoding: 57 -1 120
Width: 805
VWidth: 0
Flags: W
HStem: 4 68<56.4448 349 460 746.793>
VStem: 357 95<344 784.768>
LayerCount: 2
Back
Fore
SplineSet
404 789 m 5
 430 789 452 777 452 762 c 6
 452 344 l 5
 587 757 l 5
 589 762 l 6
 594 777 619 787 645 784 c 4
 671 781 688 767 683 752 c 6
 460 72 l 5
 695 72 l 6
 734 72 753 61 753 38 c 4
 753 16 695 4 695 4 c 5
 110 4 l 6
 71 4 51 16 51 38 c 4
 51 61 110 72 110 72 c 5
 349 72 l 5
 126 752 l 6
 121 767 138 781 164 784 c 4
 190 787 215 777 220 762 c 6
 221 757 l 5
 357 344 l 5
 357 762 l 6
 357 777 378 789 404 789 c 5
EndSplineSet
LCarets2: 2 0 0
Ligature2: "OLD_HUNGARIAN_LIGATURES" u10CFB u200D u10CFE
EndChar

StartChar: u200D
Encoding: 121 8205 121
Width: 1024
Flags: HW
LayerCount: 2
Back
Fore
SplineSet
128 -128 m 1
 128 -64 l 1
 64 -64 l 1
 64 -128 l 1
 128 -128 l 1
256 -128 m 1
 256 -64 l 1
 192 -64 l 1
 192 -128 l 1
 256 -128 l 1
384 -128 m 1
 384 -64 l 1
 320 -64 l 1
 320 -128 l 1
 384 -128 l 1
512 -128 m 1
 512 -64 l 1
 448 -64 l 1
 448 -128 l 1
 512 -128 l 1
640 -128 m 1
 640 -64 l 1
 576 -64 l 1
 576 -128 l 1
 640 -128 l 1
768 -128 m 1
 768 -64 l 1
 704 -64 l 1
 704 -128 l 1
 768 -128 l 1
896 -128 m 1
 896 -64 l 1
 832 -64 l 1
 832 -128 l 1
 896 -128 l 1
1024 -128 m 1
 1024 -64 l 1
 960 -64 l 1
 960 -128 l 1
 1024 -128 l 1
1024 0 m 1
 1024 64 l 1
 960 64 l 1
 960 0 l 1
 1024 0 l 1
64 64 m 1
 64 128 l 1
 0 128 l 1
 0 64 l 1
 64 64 l 1
1024 128 m 1
 1024 192 l 1
 960 192 l 1
 960 128 l 1
 1024 128 l 1
64 192 m 1
 64 256 l 1
 0 256 l 1
 0 192 l 1
 64 192 l 1
1024 256 m 1
 1024 320 l 1
 960 320 l 1
 960 256 l 1
 1024 256 l 1
64 320 m 1
 64 384 l 1
 0 384 l 1
 0 320 l 1
 64 320 l 1
448 384 m 1
 448 448 l 1
 256 448 l 1
 256 512 l 1
 192 512 l 1
 192 512 192 512 192 384 c 1
 448 384 l 1
1024 384 m 1
 1024 448 l 1
 960 448 l 1
 960 384 l 1
 1024 384 l 1
64 448 m 1
 64 512 l 1
 0 512 l 1
 0 448 l 1
 64 448 l 1
1024 512 m 1
 1024 576 l 1
 960 576 l 1
 960 512 l 1
 1024 512 l 1
64 576 m 1
 64 640 l 1
 0 640 l 1
 0 576 l 1
 64 576 l 1
1024 640 m 1
 1024 704 l 1
 960 704 l 1
 960 640 l 1
 1024 640 l 1
64 704 m 1
 64 768 l 1
 0 768 l 1
 0 704 l 1
 64 704 l 1
1024 768 m 1
 1024 832 l 1
 960 832 l 1
 960 768 l 1
 1024 768 l 1
64 832 m 1
 64 896 l 1
 0 896 l 1
 0 832 l 1
 64 832 l 1
192 832 m 1
 192 896 l 1
 128 896 l 1
 128 832 l 1
 192 832 l 1
320 832 m 1
 320 896 l 1
 256 896 l 1
 256 832 l 1
 320 832 l 1
448 832 m 1
 448 896 l 1
 384 896 l 1
 384 832 l 1
 448 832 l 1
576 832 m 1
 576 896 l 1
 512 896 l 1
 512 832 l 1
 576 832 l 1
704 832 m 1
 704 896 l 1
 640 896 l 1
 640 832 l 1
 704 832 l 1
832 832 m 1
 832 896 l 1
 768 896 l 1
 768 832 l 1
 832 832 l 1
64 -64 m 1
 64 0 l 1
 0 0 l 1
 0 -64 l 1
 64 -64 l 1
448 64 m 1
 448 0 l 1
 576 0 l 1
 576 64 l 1
 448 64 l 1
448 64 m 1
 448 64 448 64 448 192 c 1
 384 192 l 1
 384 192 384 192 384 64 c 1
 448 64 l 1
576 64 m 1
 640 64 l 1
 640 64 640 64 640 320 c 1
 576 320 l 1
 576 320 576 320 576 64 c 1
640 448 m 1
 704 448 l 1
 704 512 l 1
 640 512 l 1
 640 512 640 512 640 768 c 1
 576 768 l 1
 576 768 576 768 576 384 c 1
 640 384 l 1
 640 448 l 1
832 448 m 1
 832 384 l 1
 896 384 l 1
 896 384 896 384 896 768 c 1
 832 768 l 1
 832 768 832 768 832 512 c 1
 768 512 l 1
 768 448 l 1
 832 448 l 1
256 512 m 1
 320 512 l 1
 320 576 l 1
 256 576 l 1
 256 512 l 1
704 512 m 1
 768 512 l 1
 768 512 768 512 768 640 c 1
 704 640 l 1
 704 640 704 640 704 512 c 1
320 576 m 1
 384 576 l 1
 384 640 l 1
 320 640 l 1
 320 576 l 1
384 640 m 1
 448 640 l 1
 448 640 448 640 448 768 c 1
 192 768 l 1
 192 704 l 1
 384 704 l 1
 384 640 l 1
960 832 m 1
 960 896 l 1
 896 896 l 1
 896 832 l 1
 960 832 l 1
EndSplineSet
EndChar

StartChar: uni10CEE_uni200D_uni10CD3
Encoding: 111 -1 122
Width: 476
VWidth: 0
Flags: W
VStem: 66 57<6.2793 156> 351 60<6.43564 156>
LayerCount: 2
Back
Fore
SplineSet
238 435 m 1
 125 253 l 1
 238 74 l 1
 349 253 l 1
 238 435 l 1
66 253 m 2
 66 257 67 261 68 262 c 2
 210 493 l 1
 216 501 225 505 238 505 c 0
 251 505 260 501 265 493 c 2
 409 262 l 2
 410 261 411 257 411 253 c 2
 411 23 l 2
 411 12 401 6 382 6 c 0
 361 6 351 12 351 23 c 2
 351 156 l 1
 265 17 l 2
 258 9 249 5 236 5 c 0
 223 5 215 9 210 17 c 2
 123 156 l 1
 123 23 l 2
 123 12 113 6 94 6 c 0
 75 6 66 12 66 23 c 2
 66 253 l 2
EndSplineSet
Ligature2: "OLD_HUNGARIAN_LIGATURES" u10CEE u200D u10CD3
EndChar

StartChar: uni10CD0_uni200D_uni10CD2
Encoding: 114 -1 123
Width: 377
VWidth: 0
Flags: W
VStem: 198.795 60<5.37384 329 409 446>
LayerCount: 2
Back
Fore
SplineSet
280.794921875 419 m 1
 295.794921875 426 308.794921875 426 320.794921875 417 c 0
 333.794921875 408 332.794921875 401 319.794921875 393 c 2
 258.794921875 360 l 1
 258.794921875 22 l 2
 258.794921875 10 248.794921875 5 227.794921875 5 c 0
 208.794921875 5 198.794921875 10 198.794921875 22 c 2
 198.794921875 329 l 1
 174.794921875 315 l 2
 161.794921875 306 146.794921875 307 132.794921875 316 c 0
 118.794921875 325 119.794921875 334 136.794921875 342 c 2
 198.794921875 375 l 1
 198.794921875 444 l 1
 198.794921875 446 l 1
 101.794921875 395 l 2
 85.794921875 384 71.794921875 385 59.794921875 395 c 0
 47.794921875 405 49.794921875 415 64.794921875 422 c 2
 207.794921875 496 l 2
 213.794921875 500 220.794921875 503 227.794921875 503 c 0
 248.794921875 503 258.794921875 498 258.794921875 486 c 2
 258.794921875 444 l 1
 258.794921875 409 l 1
 280.794921875 419 l 1
EndSplineSet
Ligature2: "OLD_HUNGARIAN_LIGATURES" u10CD0 u200D u10CD2
EndChar

StartChar: uni10C90_uni200D_uni10C92
Encoding: 56 -1 124
Width: 465
VWidth: 0
Flags: W
VStem: 243.667 80<6.51917 440 547 598>
LayerCount: 2
Back
Fore
SplineSet
353.666992188 562 m 1
 373.666992188 572 391.666992188 570 408.666992188 558 c 0
 425.666992188 546 423.666992188 536 406.666992188 526 c 2
 323.666992188 482 l 1
 323.666992188 28 l 2
 323.666992188 12 310.666992188 5 282.666992188 5 c 0
 256.666992188 5 243.666992188 12 243.666992188 28 c 2
 243.666992188 440 l 1
 210.666992188 422 l 2
 192.666992188 410 174.666992188 411 155.666992188 423 c 0
 136.666992188 435 137.666992188 447 160.666992188 458 c 2
 243.666992188 503 l 1
 243.666992188 594 l 1
 243.666992188 598 l 1
 113.666992188 529 l 2
 91.6669921875 515 73.6669921875 515 57.6669921875 529 c 0
 41.6669921875 543 43.6669921875 555 63.6669921875 565 c 2
 255.666992188 665 l 2
 264.666992188 671 273.666992188 674 282.666992188 674 c 0
 310.666992188 674 323.666992188 667 323.666992188 651 c 2
 323.666992188 594 l 1
 323.666992188 547 l 1
 353.666992188 561 l 1
 353.666992188 562 l 1
EndSplineSet
Ligature2: "OLD_HUNGARIAN_LIGATURES" u10C90 u200D u10C92
EndChar

StartChar: uni10CAE_uni200D_uni10C93
Encoding: 53 -1 125
Width: 602
VWidth: 0
Flags: W
VStem: 70 77<7.48438 208> 453 80<7.87619 208>
LayerCount: 2
Back
Fore
SplineSet
302 583 m 1
 150 339 l 1
 302 98 l 1
 450 339 l 1
 302 583 l 1
70 339 m 1
 70 345 71 349 73 351 c 2
 263 660 l 1
 271 671 283 676 301 676 c 0
 319 676 330 671 337 660 c 2
 530 351 l 2
 532 349 533 345 533 339 c 2
 533 29 l 2
 533 14 521 6 495 6 c 0
 467 6 453 14 453 29 c 2
 453 208 l 1
 337 21 l 2
 328 10 315 5 298 5 c 0
 281 5 269 10 263 21 c 2
 147 208 l 1
 147 29 l 2
 147 14 134 6 108 6 c 0
 82 6 70 14 70 29 c 2
 70 339 l 1
EndSplineSet
Ligature2: "OLD_HUNGARIAN_LIGATURES" u10CAE u200D u10C93
EndChar

StartChar: uni10CAF_uni200D_uni10C87
Encoding: 51 -1 126
Width: 792
VWidth: 0
Flags: W
HStem: 320 49<544 742.836>
VStem: 76 81<83 230 296 443 509 682.102> 464 80<6.69336 185 251 320 369 393 459 606>
LayerCount: 2
Back
Fore
SplineSet
464 393 m 1
 157 230 l 1
 157 83 l 1
 464 251 l 1
 464 393 l 1
157 296 m 1
 464 459 l 1
 464 606 l 1
 157 443 l 1
 157 414 l 1
 157 296 l 1
544 369 m 1
 701 369 l 2
 729 369 743 360 743 344 c 0
 743 328 729 320 701 320 c 2
 544 320 l 1
 544 29 l 2
 544 13 531 5 505 5 c 0
 477 5 464 13 464 29 c 2
 464 185 l 1
 145 11 l 1
 133 7 124 5 118 5 c 0
 90 5 76 13 76 29 c 2
 76 660 l 2
 76 676 90 684 118 684 c 0
 145 684 157 676 157 660 c 2
 157 509 l 1
 476 678 l 2
 488 682 497 684 505 684 c 0
 531 684 544 676 544 660 c 2
 544 369 l 1
EndSplineSet
Ligature2: "OLD_HUNGARIAN_LIGATURES" u10CAF u200D u10C87
EndChar

StartChar: uni10CA5_uni200D_uni10C93
Encoding: 55 -1 127
Width: 584
VWidth: 0
Flags: W
VStem: 76 79<6.69336 209 473 672.307>
LayerCount: 2
Back
Fore
SplineSet
306 583 m 1
 155 341 l 1
 306 100 l 1
 456 341 l 1
 306 583 l 1
76 650 m 1
 76 666 88 674 114 674 c 0
 141 674 155 666 155 650 c 2
 155 473 l 1
 267 659 l 1
 274 667 288 672 306 672 c 0
 324 672 335 667 341 659 c 2
 532 350 l 2
 536 342 536 336 532 332 c 2
 341 23 l 2
 333 11 321 5 305 5 c 0
 289 5 276 11 267 23 c 2
 155 209 l 1
 155 29 l 2
 155 13 141 5 114 5 c 0
 88 5 76 13 76 29 c 2
 76 650 l 1
EndSplineSet
Ligature2: "OLD_HUNGARIAN_LIGATURES" u10CA5 u200D u10C93
EndChar

StartChar: uni10CB0_uni200D_uni10C87
Encoding: 52 -1 128
Width: 576
VWidth: 0
Flags: W
HStem: 313 47<57.4316 234.394 350.394 519.355>
VStem: 252.394 80<6.70563 313 467 669.102>
LayerCount: 2
Back
Fore
SplineSet
63.3935546875 636 m 0
 49.3935546875 652 55.3935546875 662 80.3935546875 668 c 0
 105.393554688 674 124.393554688 670 137.393554688 654 c 2
 252.393554688 467 l 1
 252.393554688 647 l 2
 252.393554688 663 264.393554688 671 290.393554688 671 c 0
 318.393554688 671 332.393554688 663 332.393554688 647 c 2
 332.393554688 467 l 1
 448.393554688 654 l 2
 456.393554688 670 472.393554688 675 497.393554688 669 c 0
 522.393554688 663 530.393554688 652 522.393554688 636 c 2
 350.393554688 360 l 1
 480.393554688 360 l 2
 506.393554688 360 519.393554688 352 519.393554688 336 c 0
 519.393554688 321 506.393554688 313 480.393554688 313 c 2
 332.393554688 313 l 1
 332.393554688 28 l 2
 332.393554688 12 318.393554688 5 290.393554688 5 c 0
 264.393554688 5 252.393554688 12 252.393554688 28 c 2
 252.393554688 313 l 1
 95.3935546875 313 l 2
 70.3935546875 313 57.3935546875 321 57.3935546875 336 c 0
 57.3935546875 352 70.3935546875 360 95.3935546875 360 c 2
 234.393554688 360 l 1
 63.3935546875 636 l 0
EndSplineSet
Ligature2: "OLD_HUNGARIAN_LIGATURES" u10CB0 u200D u10C87
EndChar

StartChar: uni10CEF_uni200D_uni10CC7
Encoding: 109 -1 129
Width: 619
VWidth: 0
Flags: W
HStem: 240 36<424 570.993>
VStem: 75 61<63 173 222 331 380 509.561> 364 60<5.35596 139 188 240 276 294 343 453>
LayerCount: 2
Back
Fore
SplineSet
364 294 m 1
 136 173 l 1
 136 63 l 1
 364 188 l 1
 364 294 l 1
136 222 m 1
 364 343 l 1
 364 453 l 1
 136 331 l 1
 136 309 l 1
 136 222 l 1
424 276 m 1
 540 276 l 2
 561 276 571 270 571 258 c 0
 571 246 561 240 540 240 c 2
 424 240 l 1
 424 23 l 2
 424 11 414 5 394 5 c 0
 373 5 364 11 364 23 c 2
 364 139 l 1
 126 10 l 1
 117 7 111 5 106 5 c 0
 85 5 75 11 75 23 c 2
 75 492 l 2
 75 504 85 510 106 510 c 0
 126 510 136 504 136 492 c 2
 136 380 l 1
 372 506 l 2
 381 509 388 510 394 510 c 0
 414 510 424 504 424 492 c 2
 424 276 l 1
EndSplineSet
Ligature2: "OLD_HUNGARIAN_LIGATURES" u10CEF u200D u10CC7
EndChar

StartChar: uni10CE5_uni200D_uni10CD3
Encoding: 113 -1 130
Width: 467
VWidth: 0
Flags: W
VStem: 75 59<5.43945 157 354 502.561>
LayerCount: 2
Back
Fore
SplineSet
246 435 m 1
 134 255 l 1
 246 76 l 1
 358 255 l 1
 246 435 l 1
75 485 m 1
 75 497 84 503 103 503 c 0
 123 503 134 497 134 485 c 2
 134 354 l 1
 217 492 l 1
 222 498 232 502 246 502 c 0
 259 502 268 498 272 492 c 2
 415 262 l 2
 418 256 418 252 415 249 c 2
 272 18 l 2
 266 9 258 5 246 5 c 0
 234 5 224 9 217 18 c 2
 134 157 l 1
 134 23 l 2
 134 11 123 5 103 5 c 0
 84 5 75 11 75 23 c 2
 75 485 l 1
EndSplineSet
Ligature2: "OLD_HUNGARIAN_LIGATURES" u10CE5 u200D u10CD3
EndChar

StartChar: uni10CF0_uni200D_uni10CC7
Encoding: 110 -1 131
Width: 458
VWidth: 0
Flags: W
HStem: 234 36<58.3389 189.312 276.312 401.286>
VStem: 203.312 59<5.37384 234 349 500.561>
LayerCount: 2
Back
Fore
SplineSet
62.3125 475 m 1
 52.3125 487 56.3125 494 75.3125 499 c 0
 94.3125 504 107.3125 500 117.3125 488 c 2
 203.3125 349 l 1
 203.3125 483 l 2
 203.3125 495 212.3125 501 231.3125 501 c 0
 252.3125 501 262.3125 495 262.3125 483 c 2
 262.3125 349 l 1
 349.3125 488 l 2
 355.3125 500 367.3125 504 385.3125 499 c 0
 403.3125 494 410.3125 487 404.3125 475 c 2
 276.3125 270 l 1
 373.3125 270 l 2
 392.3125 270 401.3125 263 401.3125 251 c 0
 401.3125 240 392.3125 234 373.3125 234 c 2
 262.3125 234 l 1
 262.3125 22 l 2
 262.3125 10 252.3125 5 231.3125 5 c 0
 212.3125 5 203.3125 10 203.3125 22 c 2
 203.3125 234 l 1
 86.3125 234 l 2
 67.3125 234 58.3125 240 58.3125 251 c 0
 58.3125 263 67.3125 270 86.3125 270 c 2
 189.3125 270 l 1
 62.3125 475 l 1
EndSplineSet
Ligature2: "OLD_HUNGARIAN_LIGATURES" u10CF0 u200D u10CC7
EndChar

StartChar: uni10CFE_uni200D_uni10CFB
Encoding: 57 -1 132
Width: 805
VWidth: 0
Flags: W
HStem: 4 68<56.4448 349 460 746.793>
VStem: 357 95<344 784.768>
LayerCount: 2
Back
Fore
SplineSet
404 789 m 5
 430 789 452 777 452 762 c 6
 452 344 l 5
 587 757 l 5
 589 762 l 6
 594 777 619 787 645 784 c 4
 671 781 688 767 683 752 c 6
 460 72 l 5
 695 72 l 6
 734 72 753 61 753 38 c 4
 753 16 695 4 695 4 c 5
 110 4 l 6
 71 4 51 16 51 38 c 4
 51 61 110 72 110 72 c 5
 349 72 l 5
 126 752 l 6
 121 767 138 781 164 784 c 4
 190 787 215 777 220 762 c 6
 221 757 l 5
 357 344 l 5
 357 762 l 6
 357 777 378 789 404 789 c 5
EndSplineSet
LCarets2: 2 0 0
Ligature2: "OLD_HUNGARIAN_LIGATURES" u10CFE u200D u10CFB
EndChar

StartChar: uni2E41
Encoding: 122 11841 133
Width: 361
VWidth: 2048
Flags: HW
HStem: 0 204<129.797 260.158>
VStem: 66 42<-127.828 36.7893>
LayerCount: 2
Back
Fore
SplineSet
297 103 m 256
 297 73.6669921875 287.5 49.1669921875 268.5 29.5 c 0
 249.5 9.8330078125 225 0 195 0 c 256
 165 0 139 10.3330078125 117 31 c 0
 116.333007812 33 114.666992188 35 112 37 c 1
 109.333007812 31.6669921875 108 24 108 14 c 0
 108 -116.666992188 153.333007812 -227.666992188 244 -319 c 0
 259.333007812 -333.666992188 267 -344.333007812 267 -351 c 0
 267 -365 260.666992188 -372 248 -372 c 0
 240.666992188 -372 227.333007812 -362.333007812 208 -343 c 0
 113.333007812 -249.666992188 66 -134.666992188 66 2 c 0
 66 53.3330078125 75 97 93 133 c 0
 115.666992188 180.333007812 149.666992188 204 195 204 c 0
 224.333007812 204 248.666992188 194.5 268 175.5 c 0
 287.333007812 156.5 297 132.333007812 297 103 c 256
EndSplineSet
EndChar

StartChar: uni2E42
Encoding: 123 11842 134
Width: 735
VWidth: 2048
Flags: HW
LayerCount: 2
Back
Fore
SplineSet
670 103 m 256
 670 73.6669921875 660.666992188 49.1669921875 642 29.5 c 128
 623.333007812 9.8330078125 599 0 569 0 c 0
 539.666992188 0 514 10.3330078125 492 31 c 0
 490.666992188 33 488.666992188 35 486 37 c 1
 483.333007812 31.6669921875 482 24 482 14 c 0
 482 -118 526.666992188 -229 616 -319 c 0
 632 -334.333007812 640 -345 640 -351 c 0
 640 -365 633.333007812 -372 620 -372 c 0
 613.333007812 -372 600.666992188 -362.333007812 582 -343 c 0
 486.666992188 -247 439 -132 439 2 c 0
 439 52.6669921875 448 96.6669921875 466 134 c 0
 489.333007812 180.666992188 523.666992188 204 569 204 c 0
 598.333007812 204 622.5 194.5 641.5 175.5 c 128
 660.5 156.5 670 132.333007812 670 103 c 256
297 103 m 256
 297 73.6669921875 287.333007812 49.1669921875 268 29.5 c 128
 248.666992188 9.8330078125 224.333007812 0 195 0 c 0
 167 0 141.333007812 10.3330078125 118 31 c 0
 116.666992188 33 114.333007812 35 111 37 c 1
 108.333007812 31.6669921875 107 24 107 14 c 0
 107 -116.666992188 152.333007812 -227.666992188 243 -319 c 0
 257.666992188 -333.666992188 265 -344.333007812 265 -351 c 0
 265 -365 259 -372 247 -372 c 0
 239.666992188 -372 226.333007812 -362.333007812 207 -343 c 0
 112.333007812 -248.333007812 65 -133.333007812 65 2 c 0
 65 52.6669921875 74 96.6669921875 92 134 c 0
 114.666992188 180.666992188 149 204 195 204 c 0
 224.333007812 204 248.666992188 194.5 268 175.5 c 128
 287.333007812 156.5 297 132.333007812 297 103 c 256
EndSplineSet
EndChar

